<?xml version="1.0" encoding="UTF-8"?>
<svg id="SVGDoc" width="48" height="48" xmlns="http://www.w3.org/2000/svg" version="1.1" xmlns:xlink="http://www.w3.org/1999/xlink" xmlns:avocode="https://avocode.com/" viewBox="0 0 48 48"><defs><linearGradient id="LinearGradient1050" gradientUnits="userSpaceOnUse" x1="24.055000000000007" y1="0" x2="24.055000000000007" y2="20.13000000000011"><stop stop-opacity="1" stop-color="#ef8080" offset="0"></stop><stop stop-opacity="1" stop-color="#f0145a" offset="1"></stop></linearGradient><linearGradient id="LinearGradient1058" gradientUnits="userSpaceOnUse" x1="24" y1="15.63000000000011" x2="24" y2="48"><stop stop-opacity="1" stop-color="#ef8080" offset="0"></stop><stop stop-opacity="1" stop-color="#f0145a" offset="1"></stop></linearGradient></defs><desc>Generated with Avocode.</desc><g><g><title>Vector</title><path d="M15.73,20.125c1.104,0 2,-0.896 2,-2v-7.8c0,-3.487 2.837,-6.325 6.324,-6.325c3.487,0 6.325,2.838 6.325,6.325v7.8c0,1.104 0.895,2 2,2c1.104,0 2,-0.896 2,-2v-7.8c0.001,-5.693 -4.631,-10.325 -10.325,-10.325c-5.692,0 -10.324,4.632 -10.324,10.325v7.8c0,1.104 0.896,2 2,2z" fill="url(#LinearGradient1050)"></path></g><g><title>Vector</title><path d="M47,15.63v0h-10.616v0v2.494c0,2.206 -1.794,4 -4,4c-2.206,0 -4,-1.794 -4,-4v-2.494v0h-8.649v0v2.494c0,2.206 -1.794,4 -4,4c-2.206,0 -4,-1.794 -4,-4v-2.494v0h-10.73499c-0.552,0 -0.893,0.435 -0.762,0.971l6.998,28.497c0.422,1.602 2.108,2.901 3.76399,2.901h26c1.658,0 3.342,-1.299 3.766,-2.901l6.996,-28.497c0.131,-0.537 -0.209,-0.971 -0.762,-0.971z" fill="url(#LinearGradient1058)"></path></g><g><title>Union</title><path d="M20.6001,26.4c0,-0.7735 0.6265,-1.4 1.4,-1.4c0.7735,0 1.4,0.6265 1.4,1.4v6.95001v0l0.00005,-1.35c0,-0.7735 0.6265,-1.4 1.4,-1.4c0.77345,0 1.39995,0.6265 1.39995,1.4v1.67643c0.0126,-0.76232 0.6345,-2.37642 1.3999,-2.37642c0.7731,0 1.3999,0.62679 1.4,1.39998c0,0 0.0411,1.04107 0.1332,1.10332c0.224,-0.47478 0.707,-1.80332 1.2668,-1.80332c0.7732,0 1.4,0.6268 1.4,1.4v7c0,1.5463 -1.2537,2.8 -2.8,2.8h-4.6802c-1.4854,0 -2.9099,-0.5901 -3.9599,-1.6401l-2.2099,-2.2099v0l-3.14998,-1.4098c0.00509,-1.3369 1.05253,-1.7402 2.09998,-1.7402c0.9023,0 1.7136,0.1407 3.5,1.05z" fill="#ffffff" fill-opacity="1"></path></g></g></svg>