<?xml version="1.0" encoding="UTF-8"?>
<svg id="SVGDoc" width="48" height="52" xmlns="http://www.w3.org/2000/svg" version="1.1" xmlns:xlink="http://www.w3.org/1999/xlink" xmlns:avocode="https://avocode.com/" viewBox="0 0 48 52"><defs><linearGradient id="LinearGradient1075" gradientUnits="userSpaceOnUse" x1="24.014999999999986" y1="29.079999999999927" x2="24.014999999999986" y2="52"><stop stop-opacity="1" stop-color="#ef8080" offset="0"></stop><stop stop-opacity="1" stop-color="#f0145a" offset="1"></stop></linearGradient><linearGradient id="LinearGradient1083" gradientUnits="userSpaceOnUse" x1="24.019999999999982" y1="29.079999999999927" x2="24.019999999999982" y2="37.72000000000003"><stop stop-opacity="1" stop-color="#ef8080" offset="0"></stop><stop stop-opacity="1" stop-color="#f0145a" offset="1"></stop></linearGradient><linearGradient id="LinearGradient1091" gradientUnits="userSpaceOnUse" x1="24.014999999999986" y1="9.1400000000001" x2="24.014999999999986" y2="26.980000000000018"><stop stop-opacity="1" stop-color="#ef8080" offset="0"></stop><stop stop-opacity="1" stop-color="#f0145a" offset="1"></stop></linearGradient><linearGradient id="LinearGradient1099" gradientUnits="userSpaceOnUse" x1="24.019999999999982" y1="-0.049999999999954525" x2="24.019999999999982" y2="7.130000000000109"><stop stop-opacity="1" stop-color="#ef8080" offset="0"></stop><stop stop-opacity="1" stop-color="#f0145a" offset="1"></stop></linearGradient></defs><desc>Generated with Avocode.</desc><g><g><title>Vector</title><path d="M45.4491,29.08v0v17.2951c0,3.0934 -2.4243,5.6284 -5.3881,5.6284h-32.09291c-2.9638,0 -5.38809,-2.535 -5.38809,-5.6284v-17.2951v0h16.6661v0v7.51081v0l4.7685,3.13339v0l4.7684,-3.13339v0v-7.51081v0z" fill="url(#LinearGradient1075)"></path></g><g><title>Vector</title><path d="M20.92,29.08v0v6.60848v0l3.09809,2.03556v0l3.0981,-2.03556v0v-6.60848v0z" fill="url(#LinearGradient1083)"></path></g><g><title>Vector</title><path d="M4.07086,9.14v0h39.88644c1.8825,0 3.4209,1.70807 3.4209,3.79546v10.25314c0,2.0874 -1.5384,3.7955 -3.4209,3.7955h-15.6459v0h-8.5946v0h-15.64594c-1.88242,0 -3.42086,-1.7081 -3.42086,-3.7955v-10.25314c0,-2.08739 1.53844,-3.79546 3.42086,-3.79546z" fill="url(#LinearGradient1091)"></path></g><g><title>Vector</title><path d="M15.71595,-0.05v0h16.60955c1.5432,0 2.806,1.2628 2.806,2.80595v4.37739v0h-3.5575v0v-2.58685c0,-0.69737 -0.5702,-1.26987 -1.2676,-1.26987h-12.57138c-0.69737,0 -1.26751,0.5725 -1.26751,1.26987v2.58685v0h-3.55751v0v-4.37739c0,-1.54315 1.2628,-2.80595 2.80595,-2.80595z" fill="url(#LinearGradient1099)"></path></g></g></svg>