<?xml version="1.0" encoding="UTF-8"?>
<svg id="SVGDoc" width="64" height="64" xmlns="http://www.w3.org/2000/svg" version="1.1" xmlns:xlink="http://www.w3.org/1999/xlink" xmlns:avocode="https://avocode.com/" viewBox="0 0 64 64"><defs><linearGradient id="LinearGradient1122" gradientUnits="userSpaceOnUse" x1="32" y1="0" x2="32" y2="64"><stop stop-opacity="1" stop-color="#ef8080" offset="0"></stop><stop stop-opacity="1" stop-color="#f0145a" offset="1"></stop></linearGradient><linearGradient id="LinearGradient1135" gradientUnits="userSpaceOnUse" x1="32" y1="21.25" x2="32" y2="42.75"><stop stop-opacity="1" stop-color="#ef8080" offset="0"></stop><stop stop-opacity="1" stop-color="#f0145a" offset="1"></stop></linearGradient></defs><desc>Generated with Avocode.</desc><g><g><title>crowdfunding 1</title><g><title>Background</title></g><g><title>Group</title><g><title>Group</title><g><title>Vector</title><path d="M60.52531,37.7273c2.8656,1.187 4.2311,4.484 3.0438,7.3496c-0.8741,2.11 -2.9145,3.4734 -5.1983,3.4734c-0.7399,0 -1.4637,-0.1444 -2.1512,-0.4291c-2.2582,-0.9355 -3.5837,-3.1814 -3.4637,-5.4938l-1.2271,-0.5082l-3.479,-1.441c-1.69,3.1135 -4.2596,5.683 -7.3731,7.3731l1.441,3.479l0.5077,1.2257c0.0984,-0.0051 0.197,-0.0081 0.296,-0.0081c2.2838,0 4.3243,1.3635 5.1983,3.4734c1.187,2.8656 -0.1788,6.1625 -3.0442,7.3495c-0.6875,0.2848 -1.4112,0.4292 -2.1511,0.4292c-2.2837,0 -4.3242,-1.3635 -5.1982,-3.4734c-0.9354,-2.2583 -0.2846,-4.7837 1.4353,-6.334l-0.5065,-1.2228l-1.4414,-3.4801c-1.6532,0.4937 -3.4034,0.7603 -5.2149,0.7603c-1.8115,0 -3.5618,-0.2666 -5.2149,-0.7603l-1.4415,3.4801l-0.5065,1.2228c1.72,1.5503 2.3708,4.0757 1.4354,6.3339c-0.8741,2.11 -2.9145,3.4734 -5.1984,3.4734c-0.7398,0 -1.4636,-0.1444 -2.1511,-0.4291c-2.8655,-1.187 -4.2311,-4.484 -3.0442,-7.3495c0.8741,-2.11 2.9145,-3.4734 5.1983,-3.4734c0.099,0 0.1977,0.003 0.296,0.0081l0.5078,-1.2257l1.441,-3.479c-3.1135,-1.69 -5.683,-4.2596 -7.3731,-7.3731l-3.479,1.441l-1.2271,0.5082c0.12,2.3124 -1.2055,4.5583 -3.46379,5.4936c-0.6875,0.2849 -1.41125,0.4293 -2.15112,0.4293c-2.28375,0 -4.32425,-1.3635 -5.19825,-3.4734c-1.187,-2.8656 0.17875,-6.1625 3.04411,-7.3495c0.6875,-0.2848 1.41125,-0.4292 2.15113,-0.4292c1.63174,0 3.13899,0.6964 4.18561,1.8633l1.22,-0.5053l3.4802,-1.4413c-0.4937,-1.6531 -0.7603,-3.4033 -0.7603,-5.2148c0,-1.8115 0.2665,-3.5618 0.7603,-5.2149l-3.4801,-1.4415l-1.21997,-0.5054c-1.04663,1.167 -2.55387,1.8634 -4.18562,1.8634c-0.73987,0 -1.46362,-0.1444 -2.15112,-0.4291c-2.8655,-1.187 -4.23112,-4.484 -3.04425,-7.3495c0.87413,-2.11 2.9145,-3.4734 5.19837,-3.4734c0.73987,0 1.46362,0.1444 2.15112,0.4291c2.25827,0.9355 3.58377,3.1814 3.46377,5.4938l1.2271,0.5082l3.479,1.441c1.69,-3.1135 4.2596,-5.683 7.3731,-7.3731l-1.441,-3.479l-0.5077,-1.2257c-0.0984,0.0051 -0.197,0.0081 -0.296,0.0081c-2.2838,0 -4.3243,-1.36349 -5.1983,-3.47336c-1.187,-2.86562 0.1788,-6.16249 3.0441,-7.34949c0.6875,-0.28487 1.4113,-0.42925 2.1512,-0.42925c2.2837,0 4.3243,1.36337 5.1984,3.47324c0.9354,2.25837 0.2847,4.78374 -1.4353,6.33399l0.5065,1.22287l1.4415,3.4801c1.6531,-0.4937 3.4033,-0.7604 5.2148,-0.7604c1.8115,0 3.5618,0.2667 5.2149,0.7604l1.4415,-3.4801l0.5065,-1.22287c-1.72,-1.55025 -2.3707,-4.07562 -1.4354,-6.33386c0.8742,-2.11 2.9145,-3.47337 5.1984,-3.47337c0.7399,0 1.4635,0.14437 2.1511,0.42887c2.8655,1.187 4.2311,4.484 3.0443,7.34949c-0.8742,2.11 -2.9145,3.47334 -5.1984,3.47334c-0.099,0 -0.1976,-0.003 -0.296,-0.0081l-0.5078,1.2258l-1.441,3.4789c3.1135,1.69 5.683,4.2597 7.3732,7.3732l3.479,-1.441l1.2271,-0.5083c-0.12,-2.3124 1.2055,-4.5582 3.4637,-5.4936c0.6875,-0.2849 1.4113,-0.4293 2.1511,-0.4293c2.2838,0 4.3243,1.3635 5.1983,3.4734c1.187,2.8656 -0.1788,6.1625 -3.0441,7.3495c-0.6875,0.2849 -1.4113,0.4292 -2.1512,0.4292c-1.6317,0 -3.139,-0.6963 -4.1856,-1.8633l-1.22,0.5054l-3.4801,1.4414c0.4938,1.6532 0.7604,3.4034 0.7604,5.2149c0,1.8115 -0.2665,3.5618 -0.7604,5.2149l3.4801,1.4415l1.22,0.5053c1.0466,-1.1669 2.5539,-1.8633 4.1856,-1.8633c0.7399,0 1.4637,0.1444 2.1512,0.4291zM46.4989,31.9998c0,-7.9952 -6.5047,-14.5 -14.5,-14.5c-7.9952,0 -14.4999,6.5048 -14.4999,14.5c0,7.9952 6.5047,14.5 14.4999,14.5c7.9951,0 14.5,-6.5048 14.5,-14.5z" fill="#000000" fill-opacity="1"></path><path d="M60.52531,37.7273c2.8656,1.187 4.2311,4.484 3.0438,7.3496c-0.8741,2.11 -2.9145,3.4734 -5.1983,3.4734c-0.7399,0 -1.4637,-0.1444 -2.1512,-0.4291c-2.2582,-0.9355 -3.5837,-3.1814 -3.4637,-5.4938l-1.2271,-0.5082l-3.479,-1.441c-1.69,3.1135 -4.2596,5.683 -7.3731,7.3731l1.441,3.479l0.5077,1.2257c0.0984,-0.0051 0.197,-0.0081 0.296,-0.0081c2.2838,0 4.3243,1.3635 5.1983,3.4734c1.187,2.8656 -0.1788,6.1625 -3.0442,7.3495c-0.6875,0.2848 -1.4112,0.4292 -2.1511,0.4292c-2.2837,0 -4.3242,-1.3635 -5.1982,-3.4734c-0.9354,-2.2583 -0.2846,-4.7837 1.4353,-6.334l-0.5065,-1.2228l-1.4414,-3.4801c-1.6532,0.4937 -3.4034,0.7603 -5.2149,0.7603c-1.8115,0 -3.5618,-0.2666 -5.2149,-0.7603l-1.4415,3.4801l-0.5065,1.2228c1.72,1.5503 2.3708,4.0757 1.4354,6.3339c-0.8741,2.11 -2.9145,3.4734 -5.1984,3.4734c-0.7398,0 -1.4636,-0.1444 -2.1511,-0.4291c-2.8655,-1.187 -4.2311,-4.484 -3.0442,-7.3495c0.8741,-2.11 2.9145,-3.4734 5.1983,-3.4734c0.099,0 0.1977,0.003 0.296,0.0081l0.5078,-1.2257l1.441,-3.479c-3.1135,-1.69 -5.683,-4.2596 -7.3731,-7.3731l-3.479,1.441l-1.2271,0.5082c0.12,2.3124 -1.2055,4.5583 -3.46379,5.4936c-0.6875,0.2849 -1.41125,0.4293 -2.15112,0.4293c-2.28375,0 -4.32425,-1.3635 -5.19825,-3.4734c-1.187,-2.8656 0.17875,-6.1625 3.04411,-7.3495c0.6875,-0.2848 1.41125,-0.4292 2.15113,-0.4292c1.63174,0 3.13899,0.6964 4.18561,1.8633l1.22,-0.5053l3.4802,-1.4413c-0.4937,-1.6531 -0.7603,-3.4033 -0.7603,-5.2148c0,-1.8115 0.2665,-3.5618 0.7603,-5.2149l-3.4801,-1.4415l-1.21997,-0.5054c-1.04663,1.167 -2.55387,1.8634 -4.18562,1.8634c-0.73987,0 -1.46362,-0.1444 -2.15112,-0.4291c-2.8655,-1.187 -4.23112,-4.484 -3.04425,-7.3495c0.87413,-2.11 2.9145,-3.4734 5.19837,-3.4734c0.73987,0 1.46362,0.1444 2.15112,0.4291c2.25827,0.9355 3.58377,3.1814 3.46377,5.4938l1.2271,0.5082l3.479,1.441c1.69,-3.1135 4.2596,-5.683 7.3731,-7.3731l-1.441,-3.479l-0.5077,-1.2257c-0.0984,0.0051 -0.197,0.0081 -0.296,0.0081c-2.2838,0 -4.3243,-1.36349 -5.1983,-3.47336c-1.187,-2.86562 0.1788,-6.16249 3.0441,-7.34949c0.6875,-0.28487 1.4113,-0.42925 2.1512,-0.42925c2.2837,0 4.3243,1.36337 5.1984,3.47324c0.9354,2.25837 0.2847,4.78374 -1.4353,6.33399l0.5065,1.22287l1.4415,3.4801c1.6531,-0.4937 3.4033,-0.7604 5.2148,-0.7604c1.8115,0 3.5618,0.2667 5.2149,0.7604l1.4415,-3.4801l0.5065,-1.22287c-1.72,-1.55025 -2.3707,-4.07562 -1.4354,-6.33386c0.8742,-2.11 2.9145,-3.47337 5.1984,-3.47337c0.7399,0 1.4635,0.14437 2.1511,0.42887c2.8655,1.187 4.2311,4.484 3.0443,7.34949c-0.8742,2.11 -2.9145,3.47334 -5.1984,3.47334c-0.099,0 -0.1976,-0.003 -0.296,-0.0081l-0.5078,1.2258l-1.441,3.4789c3.1135,1.69 5.683,4.2597 7.3732,7.3732l3.479,-1.441l1.2271,-0.5083c-0.12,-2.3124 1.2055,-4.5582 3.4637,-5.4936c0.6875,-0.2849 1.4113,-0.4293 2.1511,-0.4293c2.2838,0 4.3243,1.3635 5.1983,3.4734c1.187,2.8656 -0.1788,6.1625 -3.0441,7.3495c-0.6875,0.2849 -1.4113,0.4292 -2.1512,0.4292c-1.6317,0 -3.139,-0.6963 -4.1856,-1.8633l-1.22,0.5054l-3.4801,1.4414c0.4938,1.6532 0.7604,3.4034 0.7604,5.2149c0,1.8115 -0.2665,3.5618 -0.7604,5.2149l3.4801,1.4415l1.22,0.5053c1.0466,-1.1669 2.5539,-1.8633 4.1856,-1.8633c0.7399,0 1.4637,0.1444 2.1512,0.4291zM46.4989,31.9998c0,-7.9952 -6.5047,-14.5 -14.5,-14.5c-7.9952,0 -14.4999,6.5048 -14.4999,14.5c0,7.9952 6.5047,14.5 14.4999,14.5c7.9951,0 14.5,-6.5048 14.5,-14.5z" fill="url(#LinearGradient1122)"></path></g></g></g><g><title>Group</title><g><title>Group</title><g><title>Vector</title><path d="M42.75,32c0,5.9275 -4.8225,10.75 -10.75,10.75c-5.92751,0 -10.75,-4.8225 -10.75,-10.75c0,-5.92751 4.82249,-10.75 10.75,-10.75c5.9275,0 10.75,4.82249 10.75,10.75zM33.875,27.87499h-3.75002v8.25001h3.75002z" fill="#000000" fill-opacity="1"></path><path d="M42.75,32c0,5.9275 -4.8225,10.75 -10.75,10.75c-5.92751,0 -10.75,-4.8225 -10.75,-10.75c0,-5.92751 4.82249,-10.75 10.75,-10.75c5.9275,0 10.75,4.82249 10.75,10.75zM33.875,27.87499h-3.75002v8.25001h3.75002z" fill="url(#LinearGradient1135)"></path></g></g></g></g></g></svg>