<?xml version="1.0" encoding="UTF-8"?>
<svg id="SVGDoc" width="62" height="60" xmlns="http://www.w3.org/2000/svg" version="1.1" xmlns:xlink="http://www.w3.org/1999/xlink" xmlns:avocode="https://avocode.com/" viewBox="0 0 62 60"><defs><linearGradient id="LinearGradient1148" gradientUnits="userSpaceOnUse" x1="31.510000000000005" y1="54" x2="31.510000000000005" y2="60"><stop stop-opacity="1" stop-color="#ef8080" offset="0"></stop><stop stop-opacity="1" stop-color="#f0145a" offset="1"></stop></linearGradient><linearGradient id="LinearGradient1157" gradientUnits="userSpaceOnUse" x1="9.219999999999999" y1="6.440000000000055" x2="9.219999999999999" y2="11.440000000000055"><stop stop-opacity="1" stop-color="#ef8080" offset="0"></stop><stop stop-opacity="1" stop-color="#f0145a" offset="1"></stop></linearGradient><linearGradient id="LinearGradient1166" gradientUnits="userSpaceOnUse" x1="53.06" y1="-0.6900000000000546" x2="53.06" y2="18.309999999999945"><stop stop-opacity="1" stop-color="#ef8080" offset="0"></stop><stop stop-opacity="1" stop-color="#f0145a" offset="1"></stop></linearGradient><linearGradient id="LinearGradient1175" gradientUnits="userSpaceOnUse" x1="31.14" y1="5.980000000000018" x2="31.14" y2="35.02999999999997"><stop stop-opacity="1" stop-color="#ef8080" offset="0"></stop><stop stop-opacity="1" stop-color="#f0145a" offset="1"></stop></linearGradient><linearGradient id="LinearGradient1184" gradientUnits="userSpaceOnUse" x1="31.409999999999997" y1="15.490000000000009" x2="31.409999999999997" y2="52.930000000000064"><stop stop-opacity="1" stop-color="#ef8080" offset="0"></stop><stop stop-opacity="1" stop-color="#f0145a" offset="1"></stop></linearGradient></defs><desc>Generated with Avocode.</desc><g><g><title>Vector</title><path d="M41.01,54v0h-19v0v6v0h19v0z" fill="#000000" fill-opacity="1"></path><path d="M41.01,54v0h-19v0v6v0h19v0z" fill="url(#LinearGradient1148)"></path></g><g transform="rotate(135 9 9)"><title>Vector</title><path d="M-0.28,11.44001v0h19v0v-5.00001v0h-19v0z" fill="#000000" fill-opacity="1"></path><path d="M-0.28,11.44001v0h19v0v-5.00001v0h-19v0z" fill="url(#LinearGradient1157)"></path></g><g transform="rotate(135 53 9)"><title>Vector</title><path d="M50.56,18.31v0h4.99998v0v-19v0h-4.99998v0z" fill="#000000" fill-opacity="1"></path><path d="M50.56,18.31v0h4.99998v0v-19v0h-4.99998v0z" fill="url(#LinearGradient1166)"></path></g><g><title>Vector</title><path d="M43.5519,7.70796v0l-2.6914,-0.11407c-0.776,-0.10954 -1.5669,-0.03723 -2.3102,0.21122c-0.7433,0.24845 -1.4187,0.66625 -1.9729,1.22042l-5.5045,5.50446v0l-5.7535,-5.75354c-0.4996,-0.48807 -1.1228,-0.83064 -1.8026,-0.9908c-0.6798,-0.16016 -1.3904,-0.13186 -2.0553,0.08186c-0.6272,0.19076 -1.2945,0.20749 -1.9305,0.04842c-0.636,-0.15908 -1.2169,-0.48798 -1.6805,-0.95157l-0.8539,-0.85388v0l-10.6066,10.60662v0l1.728,1.728v0l-0.11408,2.6912c-0.10954,0.776 -0.03724,1.5669 0.21121,2.3102c0.24845,0.7433 0.66623,1.4187 1.2204,1.973l9.61247,9.6124c0.1284,-1.2618 0.733,-2.4273 1.6906,-3.2589l-2.9949,-2.995v0l0.7071,-0.7071v0l3.1282,3.1283c0.4434,-0.2525 0.9232,-0.4348 1.4224,-0.5406v-3.6939v0l-1.7222,-1.7222v0l0.7071,-0.7071v0l1.0151,1.015v0v-5.3498c-0.0112,-0.8843 0.3027,-1.7419 0.882,-2.4101c0.5792,-0.6682 1.3837,-1.1005 2.2606,-1.2149c0.3307,-0.0321 0.6643,-0.017 0.9907,0.0448l-1.2294,-1.22951v0l0.7071,-0.7071v0l1.7961,1.79611c0.3182,-0.61632 0.8103,-1.12572 1.4153,-1.46495c0.605,-0.33923 1.2963,-0.49336 1.9881,-0.44328c0.8349,0.09752 1.6094,0.48404 2.1892,1.09259c0.5799,0.60854 0.9285,1.40074 0.9856,2.23944c0.5684,-0.2702 1.1982,-0.3847 1.8252,-0.332c0.8911,0.1066 1.7108,0.5405 2.3002,1.2173c0.5893,0.6769 0.9062,1.5485 0.8893,2.4458v3.4238c0.91,0.1901 1.7492,0.6299 2.4232,1.2702c0.6741,0.6404 1.1564,1.4558 1.3929,2.355l2.7885,-2.7885v0l0.7071,0.7071v0l-3.3153,3.3153c0.0001,0.0137 0.0036,0.0265 0.0036,0.0403v3.3201c0.8984,-0.094 1.7377,-0.4922 2.3789,-1.1285l6.8401,-6.8402c0.4881,-0.4995 0.8307,-1.1227 0.9908,-1.8025c0.1602,-0.6798 0.1319,-1.3904 -0.0819,-2.0553c-0.1907,-0.6273 -0.2075,-1.2946 -0.0484,-1.9306c0.1591,-0.636 0.488,-1.2169 0.9516,-1.6805l0.8539,-0.8539v0l-10.6066,-10.6066v0z" fill="#000000" fill-opacity="1"></path><path d="M43.5519,7.70796v0l-2.6914,-0.11407c-0.776,-0.10954 -1.5669,-0.03723 -2.3102,0.21122c-0.7433,0.24845 -1.4187,0.66625 -1.9729,1.22042l-5.5045,5.50446v0l-5.7535,-5.75354c-0.4996,-0.48807 -1.1228,-0.83064 -1.8026,-0.9908c-0.6798,-0.16016 -1.3904,-0.13186 -2.0553,0.08186c-0.6272,0.19076 -1.2945,0.20749 -1.9305,0.04842c-0.636,-0.15908 -1.2169,-0.48798 -1.6805,-0.95157l-0.8539,-0.85388v0l-10.6066,10.60662v0l1.728,1.728v0l-0.11408,2.6912c-0.10954,0.776 -0.03724,1.5669 0.21121,2.3102c0.24845,0.7433 0.66623,1.4187 1.2204,1.973l9.61247,9.6124c0.1284,-1.2618 0.733,-2.4273 1.6906,-3.2589l-2.9949,-2.995v0l0.7071,-0.7071v0l3.1282,3.1283c0.4434,-0.2525 0.9232,-0.4348 1.4224,-0.5406v-3.6939v0l-1.7222,-1.7222v0l0.7071,-0.7071v0l1.0151,1.015v0v-5.3498c-0.0112,-0.8843 0.3027,-1.7419 0.882,-2.4101c0.5792,-0.6682 1.3837,-1.1005 2.2606,-1.2149c0.3307,-0.0321 0.6643,-0.017 0.9907,0.0448l-1.2294,-1.22951v0l0.7071,-0.7071v0l1.7961,1.79611c0.3182,-0.61632 0.8103,-1.12572 1.4153,-1.46495c0.605,-0.33923 1.2963,-0.49336 1.9881,-0.44328c0.8349,0.09752 1.6094,0.48404 2.1892,1.09259c0.5799,0.60854 0.9285,1.40074 0.9856,2.23944c0.5684,-0.2702 1.1982,-0.3847 1.8252,-0.332c0.8911,0.1066 1.7108,0.5405 2.3002,1.2173c0.5893,0.6769 0.9062,1.5485 0.8893,2.4458v3.4238c0.91,0.1901 1.7492,0.6299 2.4232,1.2702c0.6741,0.6404 1.1564,1.4558 1.3929,2.355l2.7885,-2.7885v0l0.7071,0.7071v0l-3.3153,3.3153c0.0001,0.0137 0.0036,0.0265 0.0036,0.0403v3.3201c0.8984,-0.094 1.7377,-0.4922 2.3789,-1.1285l6.8401,-6.8402c0.4881,-0.4995 0.8307,-1.1227 0.9908,-1.8025c0.1602,-0.6798 0.1319,-1.3904 -0.0819,-2.0553c-0.1907,-0.6273 -0.2075,-1.2946 -0.0484,-1.9306c0.1591,-0.636 0.488,-1.2169 0.9516,-1.6805l0.8539,-0.8539v0l-10.6066,-10.6066v0z" fill="url(#LinearGradient1175)"></path></g><g><title>Vector</title><path d="M28.41,19.69185v15.44336h1v-15.44336h-0.5v-1.70166c0.00002,-0.34718 0.07235,-0.69055 0.21237,-1.00824c0.14002,-0.31769 0.34467,-0.60275 0.60091,-0.837c0.25622,-0.23426 0.55842,-0.41258 0.88742,-0.52362c0.3289,-0.11104 0.6774,-0.15236 1.0232,-0.12132c0.6418,0.08509 1.2295,0.40468 1.6497,0.89721c0.4203,0.49253 0.6434,1.12316 0.6264,1.77039v2.43146h-0.5v15.44333h1v-15.44333h-0.4584c0.0974,-0.62486 0.4287,-1.18934 0.9267,-1.57909c0.4981,-0.38974 1.1256,-0.57561 1.7556,-0.51997c0.6418,0.08508 1.2295,0.40468 1.6497,0.89721c0.4203,0.49253 0.6434,1.12316 0.6264,1.77039v4.32259c1.0609,0 2.0783,0.4214 2.8284,1.1716c0.7502,0.7501 1.1716,1.7675 1.1716,2.8284v15.1366c0,0.7837 -0.1822,1.5568 -0.5321,2.2581c-0.3499,0.7012 -0.858,1.3116 -1.4842,1.7829l-1.9837,1.8224v2.4436h-15v-1.2076c0,-0.6556 -0.17816,-1.2989 -0.51542,-1.8611c-0.33725,-0.5622 -0.82094,-1.0222 -1.39937,-1.3308c-0.62128,-0.3191 -1.14377,-0.8015 -1.5112,-1.3955c-0.36743,-0.5939 -0.56589,-1.2768 -0.57401,-1.9751v-9.6735c0,-1.0609 0.42143,-2.0783 1.17157,-2.8284c0.75015,-0.7502 1.76756,-1.1716 2.82843,-1.1716v-11.35738c-0.01374,-0.63701 0.20709,-1.25686 0.6205,-1.7417c0.41341,-0.48483 0.99057,-0.80084 1.62175,-0.88794c0.65072,-0.06614 1.30134,0.12632 1.81136,0.53583c0.51001,0.40951 0.83848,1.00319 0.91447,1.65283zM24.30917,32.0424h-1v8h1zM38.41,36.244h1v-10.4433h-1z" fill="#000000" fill-opacity="1"></path><path d="M28.41,19.69185v15.44336h1v-15.44336h-0.5v-1.70166c0.00002,-0.34718 0.07235,-0.69055 0.21237,-1.00824c0.14002,-0.31769 0.34467,-0.60275 0.60091,-0.837c0.25622,-0.23426 0.55842,-0.41258 0.88742,-0.52362c0.3289,-0.11104 0.6774,-0.15236 1.0232,-0.12132c0.6418,0.08509 1.2295,0.40468 1.6497,0.89721c0.4203,0.49253 0.6434,1.12316 0.6264,1.77039v2.43146h-0.5v15.44333h1v-15.44333h-0.4584c0.0974,-0.62486 0.4287,-1.18934 0.9267,-1.57909c0.4981,-0.38974 1.1256,-0.57561 1.7556,-0.51997c0.6418,0.08508 1.2295,0.40468 1.6497,0.89721c0.4203,0.49253 0.6434,1.12316 0.6264,1.77039v4.32259c1.0609,0 2.0783,0.4214 2.8284,1.1716c0.7502,0.7501 1.1716,1.7675 1.1716,2.8284v15.1366c0,0.7837 -0.1822,1.5568 -0.5321,2.2581c-0.3499,0.7012 -0.858,1.3116 -1.4842,1.7829l-1.9837,1.8224v2.4436h-15v-1.2076c0,-0.6556 -0.17816,-1.2989 -0.51542,-1.8611c-0.33725,-0.5622 -0.82094,-1.0222 -1.39937,-1.3308c-0.62128,-0.3191 -1.14377,-0.8015 -1.5112,-1.3955c-0.36743,-0.5939 -0.56589,-1.2768 -0.57401,-1.9751v-9.6735c0,-1.0609 0.42143,-2.0783 1.17157,-2.8284c0.75015,-0.7502 1.76756,-1.1716 2.82843,-1.1716v-11.35738c-0.01374,-0.63701 0.20709,-1.25686 0.6205,-1.7417c0.41341,-0.48483 0.99057,-0.80084 1.62175,-0.88794c0.65072,-0.06614 1.30134,0.12632 1.81136,0.53583c0.51001,0.40951 0.83848,1.00319 0.91447,1.65283zM24.30917,32.0424h-1v8h1zM38.41,36.244h1v-10.4433h-1z" fill="url(#LinearGradient1184)"></path></g></g></svg>