<?xml version="1.0" encoding="UTF-8"?>
<svg id="SVGDoc" width="46" height="60" xmlns="http://www.w3.org/2000/svg" version="1.1" xmlns:xlink="http://www.w3.org/1999/xlink" xmlns:avocode="https://avocode.com/" viewBox="0 0 46 60"><defs><linearGradient id="LinearGradient1196" gradientUnits="userSpaceOnUse" x1="23.004999999999995" y1="0.4600000000000364" x2="23.004999999999995" y2="52.32999999999993"><stop stop-opacity="1" stop-color="#ef8080" offset="0"></stop><stop stop-opacity="1" stop-color="#f0145a" offset="1"></stop></linearGradient><linearGradient id="LinearGradient1204" gradientUnits="userSpaceOnUse" x1="32.23000000000002" y1="36.16000000000008" x2="32.23000000000002" y2="59.539999999999964"><stop stop-opacity="1" stop-color="#ef8080" offset="0"></stop><stop stop-opacity="1" stop-color="#f0145a" offset="1"></stop></linearGradient></defs><desc>Generated with Avocode.</desc><g><g><title>Vector</title><path d="M32.2365,33.699c2.3521,0 4.6779,0.5884 6.7259,1.7014c0.372,0.2005 0.7133,0.4393 1.0618,0.6693c3.3612,-6.5799 5.1351,-13.5389 5.1351,-20.3279c0,-0.3816 0,-0.7754 -0.0122,-1.1692c-0.0247,-0.5539 -0.4185,-1.0339 -0.9724,-1.1569c-7.4338,-1.6246 -14.1661,-5.64928 -19.4584,-11.6308l-0.7877,-0.89852c-0.2339,-0.27073 -0.5661,-0.41842 -0.9231,-0.41842c-0.3815,-0.0492 -0.6769,0.13537 -0.9108,0.39385l-1.2061,1.32925c-5.0216,5.52614 -11.34773,9.34153 -18.28921,11.03993l-0.80003,0.1969c-0.54154,0.1231 -0.92308,0.6032 -0.9354,1.157c-0.44306,17.3046 9.77231,29.7477 14.17844,34.3015c1.193,1.2248 2.523,2.4422 3.7877,3.4484c-0.4744,-1.4307 -0.7475,-2.9362 -0.7475,-4.4819c0,-7.8047 6.3492,-14.1539 14.1539,-14.1539z" fill="url(#LinearGradient1196)"></path></g><g><title>Vector</title><path d="M43.9246,47.8523c0,6.4492 -5.2553,11.6923 -11.6923,11.6923c-4.0984,0 -7.81535,-2.08 -9.96919,-5.5631c-1.13229,-1.8215 -1.72311,-3.9507 -1.72311,-6.1292c0,-6.44921 5.24309,-11.6923 11.6923,-11.6923c1.9323,0 3.8523,0.48002 5.5508,1.4031c3.7908,2.04304 6.1415,5.98152 6.1415,10.2892zM38.2205,46.2955c0.5361,-0.41705 0.6328,-1.19049 0.2152,-1.72715c-0.4177,-0.53726 -1.1917,-0.63281 -1.7272,-0.21514l-7.01383,5.45789l-1.66767,-2.6081c-0.36478,-0.5715 -1.1262,-0.7404 -1.69951,-0.3738c-0.57272,0.366 -0.74039,1.1268 -0.3738,1.6995l3.12199,4.8834z" fill="url(#LinearGradient1204)"></path></g></g></svg>