<?xml version="1.0" encoding="UTF-8"?>
<svg id="SVGDoc" width="48" height="48" xmlns="http://www.w3.org/2000/svg" version="1.1" xmlns:xlink="http://www.w3.org/1999/xlink" xmlns:avocode="https://avocode.com/" viewBox="0 0 48 48"><defs><linearGradient id="LinearGradient1226" gradientUnits="userSpaceOnUse" x1="31.590000000000032" y1="0.06999999999993634" x2="31.590000000000032" y2="13.009999999999991"><stop stop-opacity="1" stop-color="#ef8080" offset="0"></stop><stop stop-opacity="1" stop-color="#f0145a" offset="1"></stop></linearGradient><linearGradient id="LinearGradient1234" gradientUnits="userSpaceOnUse" x1="16.00999999999999" y1="15.950000000000045" x2="16.00999999999999" y2="28.8900000000001"><stop stop-opacity="1" stop-color="#ef8080" offset="0"></stop><stop stop-opacity="1" stop-color="#f0145a" offset="1"></stop></linearGradient><linearGradient id="LinearGradient1242" gradientUnits="userSpaceOnUse" x1="31.895000000000095" y1="7.1099999999999" x2="31.895000000000095" y2="37.45999999999981"><stop stop-opacity="1" stop-color="#ef8080" offset="0"></stop><stop stop-opacity="1" stop-color="#f0145a" offset="1"></stop></linearGradient><linearGradient id="LinearGradient1250" gradientUnits="userSpaceOnUse" x1="16.17999999999995" y1="34.83999999999992" x2="16.17999999999995" y2="47.929999999999836"><stop stop-opacity="1" stop-color="#ef8080" offset="0"></stop><stop stop-opacity="1" stop-color="#f0145a" offset="1"></stop></linearGradient></defs><desc>Generated with Avocode.</desc><g><g><title>iconfinder_Lawyer1_2315987 1</title><g><title>Background</title></g><g><title>Layer 3</title><g><title>Group</title><g><title>Vector</title><path d="M32.2495,12.459c0.732,0.732 1.918,0.734 2.65,0l2.608,-2.608c0.731,-0.732 0.729,-1.918 0,-2.651l-6.583,-6.581c-0.73,-0.732 -1.916,-0.732 -2.648,0l-2.609,2.608c-0.73,0.732 -0.73,1.918 0,2.648z" fill="url(#LinearGradient1226)"></path></g><g><title>Vector</title><path d="M16.67125,28.3402c0.731,0.729 1.917,0.729 2.648,0l2.60905,-2.60995c0.732,-0.73 0.732,-1.917 0,-2.649l-6.58305,-6.583c-0.731,-0.73 -1.917,-0.732 -2.649,0l-2.608,2.608c-0.732,0.732 -0.73,1.918 0,2.65z" fill="url(#LinearGradient1234)"></path></g><g><title>Vector</title><path d="M46.551,28.966v0l-2.647,-2.65c-0.734,-0.73 -1.917,-0.73 -2.648,0l-1.161,1.16v0l-11.205,-11.207v0l2.427,-2.428v0l-6.733,-6.731v0l-2.428,2.428v0l-3.092,3.09v0l-2.374,2.374v0l6.732,6.733v0l2.377,-2.373v0l11.203,11.205v0l-1.048,1.049c-0.732,0.729 -0.734,1.916 0,2.648l2.647,2.648c0.734,0.734 1.919,0.734 2.65,0l5.299,-5.297c0.733,-0.733 0.733,-1.917 0.001,-2.649z" fill="url(#LinearGradient1242)"></path></g><g><title>Vector</title><path d="M26.977,37.013c0,-1.199 -0.972,-2.173 -2.173,-2.173h-16.968c-1.2,0 -2.173,0.974 -2.173,2.173v3.527v0h-4.763v0v7.389v0h30.558v0v-7.389v0h-4.481v0z" fill="url(#LinearGradient1250)"></path></g></g></g></g></g></svg>