<?xml version="1.0" encoding="UTF-8"?>
<svg id="SVGDoc" width="24" height="24" xmlns="http://www.w3.org/2000/svg" version="1.1" xmlns:xlink="http://www.w3.org/1999/xlink" xmlns:avocode="https://avocode.com/" viewBox="0 0 24 24"><defs></defs><desc>Generated with Avocode.</desc><g><g><title>Vector</title><path d="M24.00001,12.07334c0,-6.66793 -5.37258,-12.07334 -12,-12.07334c-6.62742,0 -12,5.40541 -12,12.07334c0,6.02616 4.38823,11.02093 10.12499,11.92667v-8.43673v0h-3.04688v0v-3.48994v0h3.04688v0v-2.65992c0,-3.02587 1.79151,-4.69728 4.53259,-4.69728c1.31289,0 2.68615,0.23581 2.68615,0.23581v0v2.97117v0h-1.51316c-1.4907,0 -1.95557,0.93066 -1.95557,1.88545v2.26476v0h3.32812v0l-0.53203,3.48994v0h-2.79609v0v8.43673c5.73676,-0.90574 10.12499,-5.90051 10.12499,-11.92667z" fill="#ffffff" fill-opacity="1"></path></g></g></svg>