<?xml version="1.0" encoding="UTF-8"?>
<svg id="SVGDoc" width="181" height="38" xmlns="http://www.w3.org/2000/svg" version="1.1" xmlns:xlink="http://www.w3.org/1999/xlink" xmlns:avocode="https://avocode.com/" viewBox="0 0 181 38"><defs></defs><desc>Generated with Avocode.</desc><g><g><title>icon-logo</title><g><title>Background</title></g><g><title>Vector</title><path d="M2.29,36.195l3.34463,-4.44607l-3.14078,-3.39459h0.95884l4.51488,4.9943v-4.9943h0.755v4.9943l4.51483,-4.9943h0.9589l-3.15588,3.39459l3.35968,4.44607h-0.9286l-2.90674,-3.90529l-1.84219,1.98269v1.9226h-0.755v-1.9226l-1.84219,-1.99771l-2.90673,3.92031zM16.2348,36.195v-7.84066h0.7625v6.84186l5.3453,-6.84186h0.7626v7.84066h-0.7626v-6.8418l-5.3453,6.8418zM24.7436,35.5041c0.2466,0.0701 0.4454,0.1051 0.5965,0.1051c0.171,0 0.3145,-0.0125 0.4303,-0.0376c0.1208,-0.03 0.2491,-0.0976 0.385,-0.2027c0.136,-0.1051 0.2492,-0.2528 0.3398,-0.44308c0.0906,-0.19027 0.1786,-0.4531 0.2642,-0.78859c0.0906,-0.33548 0.1611,-0.741 0.2114,-1.21663c0.0554,-0.4807 0.1007,-1.06898 0.1359,-1.76494c0.0353,-0.69595 0.0554,-1.49203 0.0604,-2.38825v-0.41307h5.368v7.84066h-0.7625v-7.16474h-3.8807v0.21029c0,0.91625 -0.0227,1.72985 -0.068,2.4408c-0.0402,0.70598 -0.0955,1.30683 -0.166,1.80246c-0.0654,0.49572 -0.1561,0.91879 -0.2718,1.2692c-0.1158,0.34553 -0.2341,0.62089 -0.3549,0.82619c-0.1208,0.2003 -0.2718,0.358 -0.453,0.4731c-0.1812,0.1102 -0.3549,0.1803 -0.521,0.2103c-0.161,0.035 -0.3573,0.0526 -0.5888,0.0526c-0.287,0 -0.5764,-0.0401 -0.8683,-0.1202zM34.8756,32.27469c0,-0.54575 0.1032,-1.06897 0.3096,-1.56964c0.2064,-0.50069 0.4857,-0.93628 0.838,-1.30679c0.3523,-0.37551 0.7827,-0.67341 1.2911,-0.89371c0.5083,-0.22531 1.0494,-0.33797 1.6232,-0.33797c0.76,0 1.4496,0.18776 2.0687,0.56327c0.6241,0.37051 1.1073,0.87119 1.4495,1.50205c0.3474,0.62585 0.521,1.30678 0.521,2.04279c0,0.73096 -0.1736,1.40944 -0.521,2.03526c-0.3472,0.62583 -0.8355,1.12905 -1.4646,1.50955c-0.6241,0.3755 -1.3188,0.5633 -2.0838,0.5633c-0.5688,0 -1.1048,-0.1101 -1.6081,-0.3305c-0.5034,-0.2203 -0.9312,-0.5157 -1.2835,-0.88617c-0.3524,-0.3705 -0.6317,-0.80614 -0.8381,-1.30675c-0.2013,-0.50576 -0.302,-1.03396 -0.302,-1.58469zM35.691,32.27469c0,0.94629 0.3121,1.7499 0.9362,2.41074c0.6292,0.65597 1.3992,0.98387 2.3103,0.98387c0.5738,0 1.1073,-0.1502 1.6006,-0.4506c0.4932,-0.30545 0.8859,-0.71848 1.1778,-1.23917c0.2919,-0.52078 0.4379,-1.08897 0.4379,-1.70484c0,-0.94129 -0.3171,-1.74238 -0.9513,-2.40328c-0.6342,-0.66591 -1.3993,-0.99886 -2.2952,-0.99886c-0.5839,0 -1.1224,0.15271 -1.6157,0.45813c-0.4932,0.3004 -0.8833,0.71346 -1.1702,1.23918c-0.287,0.52071 -0.4304,1.08899 -0.4304,1.70483zM45.3021,36.195v-7.84066h0.7626v6.84186l5.3454,-6.84186h0.7624v7.84066h-0.7624v-6.8418l-5.3454,6.8418zM47.2877,25.17c0.2014,0.74602 0.6845,1.11903 1.4497,1.11903c0.7701,0 1.2558,-0.37301 1.4571,-1.11903l0.6342,0.13519c-0.0956,0.51069 -0.3347,0.93377 -0.7173,1.26923c-0.3825,0.33546 -0.8405,0.50318 -1.374,0.50318c-0.5336,0 -0.9916,-0.16772 -1.3742,-0.50318c-0.3774,-0.33546 -0.614,-0.75854 -0.7096,-1.26923zM59.6772,36.195v-7.84066h0.7626v5.02434l4.8848,-5.02434h1.0041l-3.4503,3.46969l3.556,4.37097h-0.9588l-3.1181,-3.8302l-1.9177,1.92262v1.90758zM67.733,32.27469c0,-0.54575 0.1032,-1.06897 0.3096,-1.56964c0.2064,-0.50069 0.4857,-0.93628 0.8381,-1.30679c0.3522,-0.37551 0.7826,-0.67341 1.291,-0.89371c0.5083,-0.22531 1.0494,-0.33797 1.6232,-0.33797c0.7601,0 1.4496,0.18776 2.0687,0.56327c0.6241,0.37051 1.1073,0.87119 1.4496,1.50205c0.3473,0.62585 0.521,1.30678 0.521,2.04279c0,0.73096 -0.1737,1.40944 -0.521,2.03526c-0.3473,0.62583 -0.8355,1.12905 -1.4647,1.50955c-0.6241,0.3755 -1.3187,0.5633 -2.0838,0.5633c-0.5688,0 -1.1048,-0.1101 -1.6081,-0.3305c-0.5034,-0.2203 -0.9312,-0.5157 -1.2835,-0.88617c-0.3523,-0.3705 -0.6317,-0.80614 -0.8381,-1.30675c-0.2013,-0.50576 -0.302,-1.03396 -0.302,-1.58469zM68.5484,32.27469c0,0.94629 0.3121,1.7499 0.9362,2.41074c0.6292,0.65597 1.3992,0.98387 2.3103,0.98387c0.5738,0 1.1073,-0.1502 1.6006,-0.4506c0.4932,-0.30545 0.8859,-0.71848 1.1778,-1.23917c0.2919,-0.52078 0.4379,-1.08897 0.4379,-1.70484c0,-0.94129 -0.3171,-1.74238 -0.9513,-2.40328c-0.6342,-0.66591 -1.3993,-0.99886 -2.2952,-0.99886c-0.5839,0 -1.1224,0.15271 -1.6157,0.45813c-0.4932,0.3004 -0.8833,0.71346 -1.1702,1.23918c-0.287,0.52071 -0.4304,1.08899 -0.4304,1.70483zM78.1595,36.195v-7.84066h0.6871l3.2162,4.50618l3.2164,-4.50618h0.6794v7.84066h-0.7625v-6.53388l-3.171,4.33343l-3.1332,-4.33343v6.53388zM88.8351,36.195v-7.84066h6.5611v7.84066h-0.7622v-7.16474h-5.0363v7.16474zM97.0415,35.5041c0.2474,0.0701 0.4457,0.1051 0.5967,0.1051c0.171,0 0.3147,-0.0125 0.4302,-0.0376c0.121,-0.03 0.2492,-0.0976 0.3857,-0.2027c0.1355,-0.1051 0.2492,-0.2528 0.3392,-0.44308c0.091,-0.19027 0.1792,-0.4531 0.2647,-0.78859c0.09,-0.33548 0.161,-0.741 0.211,-1.21663c0.0555,-0.4807 0.101,-1.06898 0.1364,-1.76494c0.0346,-0.69595 0.0546,-1.49203 0.0601,-2.38825v-0.41307h5.3685v7.84066h-0.763v-7.16474h-3.8806v0.21029c0,0.91625 -0.0228,1.72985 -0.0682,2.4408c-0.0401,0.70598 -0.0955,1.30683 -0.1656,1.80246c-0.0655,0.49572 -0.1564,0.91879 -0.2719,1.2692c-0.1164,0.34553 -0.2347,0.62089 -0.3547,0.82619c-0.121,0.2003 -0.272,0.358 -0.453,0.4731c-0.1819,0.1102 -0.3556,0.1803 -0.5212,0.2103c-0.161,0.035 -0.3574,0.0526 -0.5894,0.0526c-0.2865,0 -0.5757,-0.0401 -0.8677,-0.1202zM107.174,32.25967c0,-0.56077 0.095,-1.09149 0.287,-1.59218c0.191,-0.50568 0.451,-0.94128 0.778,-1.30678c0.327,-0.36549 0.722,-0.65589 1.185,-0.87118c0.468,-0.2153 0.963,-0.32295 1.487,-0.32295c0.72,0 1.356,0.18275 1.91,0.54825c0.559,0.36049 0.984,0.85116 1.276,1.47201c0.292,0.62084 0.438,1.31679 0.438,2.08785c0,0.12513 -0.005,0.22782 -0.015,0.30789h-6.546c0.066,0.94132 0.395,1.69236 0.989,2.25313c0.599,0.55569 1.302,0.83359 2.106,0.83359c1.037,0 1.939,-0.4081 2.704,-1.22418l0.528,0.45818c-0.443,0.4756 -0.921,0.8412 -1.434,1.0965c-0.509,0.2553 -1.118,0.383 -1.828,0.383c-0.513,0 -1.006,-0.1002 -1.479,-0.3004c-0.468,-0.2003 -0.878,-0.4757 -1.231,-0.8262c-0.352,-0.35544 -0.634,-0.79099 -0.846,-1.3067c-0.205,-0.52079 -0.309,-1.084 -0.309,-1.68983zM113.713,31.90672c-0.026,-0.40559 -0.104,-0.78611 -0.235,-1.14159c-0.131,-0.36049 -0.309,-0.68344 -0.536,-0.96883c-0.226,-0.29039 -0.518,-0.5182 -0.876,-0.68343c-0.352,-0.17023 -0.747,-0.25534 -1.185,-0.25534c-0.775,0 -1.437,0.29039 -1.985,0.87119c-0.544,0.58078 -0.852,1.30677 -0.922,2.178zM116.74,36.195v-7.84066h0.763v5.02434l4.884,-5.02434h1.004l-3.45,3.46969l3.556,4.37097h-0.959l-3.118,-3.8302l-1.917,1.92262v1.90758zM125.324,30.22439c0.353,-0.63086 0.836,-1.13154 1.45,-1.50205c0.619,-0.3705 1.299,-0.55576 2.038,-0.55576c1.228,0 2.275,0.48817 3.141,1.4645l-0.529,0.53322c-0.402,-0.41055 -0.807,-0.72848 -1.215,-0.95379c-0.403,-0.22531 -0.873,-0.33796 -1.412,-0.33796c-0.573,0 -1.105,0.15271 -1.593,0.45813c-0.488,0.3004 -0.876,0.71346 -1.162,1.23918c-0.288,0.52071 -0.431,1.08899 -0.431,1.70483c0,0.94629 0.314,1.7499 0.944,2.41074c0.629,0.65597 1.397,0.98387 2.303,0.98387c0.941,0 1.814,-0.4456 2.619,-1.33682l0.551,0.49572c-0.437,0.4956 -0.913,0.8786 -1.427,1.149c-0.507,0.2704 -1.104,0.4056 -1.789,0.4056c-0.745,0 -1.427,-0.1828 -2.046,-0.5482c-0.613,-0.3705 -1.097,-0.86879 -1.449,-1.49461c-0.348,-0.63089 -0.522,-1.31932 -0.522,-2.0653c0,-0.74102 0.177,-1.42445 0.529,-2.0503z" fill="#ffffff" fill-opacity="1"></path></g><g><title>Vector</title><path d="M16.8276,19.578c-0.8004,0.5838 -1.7742,1.0218 -2.9214,1.3137c-1.1206,0.3185 -2.28118,0.4777 -3.48178,0.4777c-1.60084,0 -2.96153,-0.2521 -4.08209,-0.7564c-1.09387,-0.5042 -1.98766,-1.2075 -2.68135,-2.1099c-0.69367,-0.9289 -1.2006,-2.0435 -1.52076,-3.344c-0.29347,-1.3004 -0.44022,-2.7335 -0.44022,-4.2994c0,-3.3705 0.76038,-5.95811 2.28115,-7.76284c1.52076,-1.83124 3.73521,-2.74686 6.64337,-2.74686c1.46738,0 2.64128,0.11943 3.52178,0.35829c0.9071,0.23886 1.7209,0.54403 2.4412,0.91561l-1.2406,4.21981c-0.6137,-0.29196 -1.2274,-0.51752 -1.8409,-0.67676c-0.5871,-0.15924 -1.2674,-0.23886 -2.04106,-0.23886c-1.44072,0 -2.53464,0.47772 -3.28168,1.43315c-0.74704,0.92892 -1.12057,2.42838 -1.12057,4.49846c0,0.8493 0.09339,1.6322 0.28014,2.3488c0.18677,0.7165 0.46691,1.3402 0.84043,1.871c0.37352,0.5308 0.85376,0.9555 1.44076,1.2739c0.61358,0.292 1.32066,0.4379 2.12108,0.4379c0.8804,0 1.6274,-0.1061 2.2411,-0.3184c0.6136,-0.2389 1.1606,-0.5176 1.6408,-0.836zM32.0199,11.7355l0.2001,-2.82645h-0.1201l-1.7208,2.90605l-7.1236,8.997h-3.2817v-19.90477h5.2027v9.47467l-0.2402,2.707h0.1601l1.6408,-2.82643l7.2037,-9.35524h3.2816v19.90477h-5.2026zM56.189,5.48543h-5.6429v15.32667h-5.3627v-15.32667h-5.6428v-4.5781h16.6484zM70.5549,11.7355l0.2001,-2.82645h-0.1201l-1.7208,2.90605l-7.1236,8.997h-3.2817v-19.90477h5.2027v9.47467l-0.2402,2.707h0.1601l1.6408,-2.82643l7.2037,-9.35524h3.2816v19.90477h-5.2026zM112.087,5.48543h-6.323v15.32667h-5.2026v-19.90477h16.7286v19.90477h-5.203zM121.741,2.06181c1.067,-0.47772 2.334,-0.8493 3.802,-1.11467c1.467,-0.29197 3.002,-0.43791 4.602,-0.43791c1.387,0 2.548,0.17254 3.482,0.51752c0.933,0.31848 1.667,0.78289 2.201,1.39334c0.56,0.61044 0.947,1.34022 1.161,2.18952c0.24,0.8493 0.36,1.80473 0.36,2.86628c0,1.16778 -0.04,2.34877 -0.12,3.5431c-0.08,1.1677 -0.134,2.3222 -0.16,3.4634c0,1.1412 0.04,2.2558 0.12,3.344c0.08,1.0615 0.28,2.0701 0.6,3.0255h-4.242l-0.84,-2.7469h-0.2c-0.534,0.8227 -1.281,1.5393 -2.242,2.1498c-0.934,0.5838 -2.148,0.8758 -3.641,0.8758c-0.935,0 -1.775,-0.1328 -2.522,-0.3981c-0.747,-0.292 -1.388,-0.6901 -1.921,-1.1943c-0.534,-0.5308 -0.947,-1.1412 -1.24,-1.8312c-0.294,-0.7166 -0.44,-1.5128 -0.44,-2.3886c0,-1.2208 0.266,-2.2427 0.8,-3.0654c0.56,-0.8493 1.347,-1.526 2.361,-2.03024c1.041,-0.53082 2.268,-0.88911 3.682,-1.07485c1.441,-0.21235 3.042,-0.27867 4.802,-0.19905c0.187,-1.48625 0.08,-2.54781 -0.32,-3.18477c-0.4,-0.66346 -1.294,-0.99523 -2.681,-0.99523c-1.041,0 -2.148,0.10613 -3.322,0.31847c-1.148,0.21235 -2.094,0.49102 -2.841,0.836zM128.344,16.871c1.041,0 1.868,-0.2256 2.482,-0.6768c0.613,-0.4777 1.067,-0.9819 1.36,-1.5128v-2.5876c-0.827,-0.0796 -1.628,-0.0929 -2.401,-0.0398c-0.747,0.0531 -1.414,0.1725 -2.001,0.3583c-0.587,0.1857 -1.054,0.4512 -1.401,0.7962c-0.347,0.345 -0.52,0.7829 -0.52,1.3137c0,0.7431 0.213,1.327 0.641,1.7516c0.452,0.3981 1.066,0.5972 1.84,0.5972zM141.715,0.90733h3.802l0.6,2.38857h0.16c0.694,-1.00853 1.507,-1.75161 2.441,-2.22933c0.961,-0.47771 2.121,-0.71657 3.482,-0.71657c2.508,0 4.389,0.79619 5.643,2.38857c1.254,1.56587 1.881,4.10038 1.881,7.60362c0,1.69851 -0.2,3.23791 -0.6,4.61791c-0.401,1.3535 -1.001,2.508 -1.801,3.4634c-0.774,0.9555 -1.735,1.6853 -2.882,2.1895c-1.12,0.5043 -2.415,0.7564 -3.882,0.7564c-0.827,0 -1.507,-0.0663 -2.041,-0.199c-0.534,-0.1061 -1.067,-0.292 -1.601,-0.5574v8.161h-5.202zM148.238,5.48543c-0.56,0.50422 -1,1.2606 -1.321,2.26914v8.28043c0.374,0.2919 0.774,0.5308 1.201,0.7165c0.454,0.1593 1.041,0.2389 1.761,0.2389c1.494,0 2.615,-0.5175 3.362,-1.5526c0.746,-1.0615 1.12,-2.8 1.12,-5.21504c0,-1.75162 -0.294,-3.10514 -0.88,-4.06057c-0.587,-0.95543 -1.535,-1.43314 -2.842,-1.43314c-1.014,0 -1.814,0.25215 -2.401,0.75638zM169.931,12.5715h-1.401v8.2406h-5.203v-19.90477h5.203v8.47943l1.241,-0.55733l4.682,-7.9221h5.563l-4.843,7.56381l-2.041,1.51277l2.242,1.55259l5.402,9.2756h-5.963z" fill="#ffffff" fill-opacity="1"></path></g><g><title>Vector</title><path d="M88.2282,14.4781c2.00931,0 3.63819,-1.62031 3.63819,-3.61905c0,-1.99875 -1.62888,-3.61905 -3.63819,-3.61905c-2.00932,0 -3.6382,1.6203 -3.6382,3.61905c0,1.99874 1.62888,3.61905 3.6382,3.61905z" fill="#f1c650" fill-opacity="1"></path></g></g></g></svg>