<?xml version="1.0" encoding="UTF-8"?>
<svg id="SVGDoc" width="179" height="44" xmlns="http://www.w3.org/2000/svg" version="1.1" xmlns:xlink="http://www.w3.org/1999/xlink" xmlns:avocode="https://avocode.com/" viewBox="0 0 179 44"><defs></defs><desc>Generated with Avocode.</desc><g><g><title>logo</title><g><title>Background</title></g><g><title>tapgerine 1</title><g><title>tapgerine</title><g><title>Group</title><g><title>Vector</title><path d="M66.31665,26.1296l0.77318,1.8785c-0.75335,0.6004 -2.02215,1.1426 -3.5685,1.1426c-3.13235,0 -4.38133,-1.9366 -4.38133,-5.4225v-12.23947h2.47813v3.79578h5.11485v2.26584h-5.11485v5.94545c0,2.1496 0.7137,3.3891 2.47812,3.3891c0.97143,0 1.70495,-0.4067 2.2204,-0.7553zM80.1347,20.5327v8.3662h-2.3394v-1.7623c-0.8326,1.0458 -2.1609,1.9754 -4.4606,1.9754c-2.5376,0 -4.2822,-1.5687 -4.2822,-4.2025c0,-2.7887 2.2601,-4.338 5.2735,-4.338c1.0903,0 2.5376,0.213 3.4693,0.8715c0,-2.537 -0.4163,-4.29934 -3.172,-4.29934c-1.7049,0 -2.7358,0.42606 -3.846,1.00704l-0.6542,-1.93662c1.2489,-0.75528 2.9142,-1.23943 4.6588,-1.23943c3.965,0 5.3528,2.03345 5.3528,5.55805zM77.7755,23.457c-0.8723,-0.6003 -1.923,-0.9102 -3.1323,-0.9102c-1.4869,0 -2.9738,0.6778 -2.9738,2.2465c0,1.2975 0.912,2.1497 2.5178,2.1497c1.8239,0 2.8746,-0.949 3.5883,-1.7624zM97.7591,21.869c0,4.1637 -2.8746,7.3398 -7.2559,7.3398c-1.4869,0 -2.954,-0.2905 -3.9452,-0.9296v6.7007h-2.4781v-19.69539h2.4781v1.60739c0.9516,-1.10387 2.8151,-1.91725 4.7382,-1.91725c3.965,0 6.4431,2.88556 6.4629,6.89435zM95.0827,21.9658c0,-2.75 -1.6454,-4.72531 -4.5201,-4.72531c-1.6454,0 -3.1521,0.81338 -4.0244,1.87851v6.7588c1.2489,0.8134 2.3988,1.0652 3.7271,1.0652c2.9737,0 4.8373,-2.0916 4.8174,-4.9772zM113.7381,16.95l-2.6368,0.63908c0.4362,0.69719 0.6543,1.51052 0.6543,2.36272c0,2.7112 -2.2601,4.8996 -5.7096,4.8996c-0.3172,0 -0.6146,0 -0.9318,-0.0387c-0.119,0.2324 -0.1586,0.5035 -0.1586,0.7553c0,0.3292 0.0991,0.6584 0.2775,0.9102c0.2776,0 0.5551,-0.0388 0.8327,-0.0388c4.0641,0 7.0973,1.4331 7.0973,4.3962c0,2.9049 -3.0332,4.338 -7.0973,4.338c-4.0641,0 -7.0974,-1.375 -7.0974,-4.338c0,-2.2078 1.7843,-3.6022 4.4607,-4.1444c-0.2379,-0.3099 -0.3371,-0.7359 -0.3371,-1.1232c0,-0.4067 0.119,-0.8328 0.3767,-1.1426c-1.9825,-0.7747 -3.1323,-2.4789 -3.1323,-4.4736c0,-2.73067 2.2005,-4.99652 5.7096,-4.99652c1.3679,0 2.5772,0.36796 3.5288,1.00704l4.084,-0.96831zM101.288,30.8743c0,1.5106 1.9032,2.3627 4.7778,2.3627c2.8944,0 4.7778,-0.8134 4.7778,-2.3627c0,-1.5106 -1.8041,-2.4208 -4.7778,-2.4208c-2.9738,0 -4.7778,0.9102 -4.7778,2.4208zM109.4162,19.9711c0,-1.68483 -1.2886,-3.0211 -3.3702,-3.0211c-2.042,0 -3.3703,1.3169 -3.3703,3.0211c0,1.7043 1.3283,2.9437 3.3703,2.9437c1.9428,0 3.3702,-1.1814 3.3702,-2.9437zM128.5474,21.2493c0,0.6584 -0.0595,1.2007 -0.1587,1.6268h-10.7253c0.2181,2.5757 2.1411,4.0862 4.877,4.0862c1.804,0 3.3901,-0.6197 4.2822,-1.4331l0.7731,1.9173c-1.3481,1.2007 -3.3702,1.7817 -5.2337,1.7817c-4.5201,0 -7.4741,-2.8275 -7.4741,-7.1268c0,-3.97006 2.6169,-7.12675 7.1965,-7.12675c3.5883,0 6.463,2.47887 6.463,6.27465zM125.9899,20.8813c-0.1189,-2.24644 -1.6058,-3.64081 -4.0244,-3.64081c-2.5575,0 -4.1633,1.54931 -4.4409,3.64081zM134.2173,16.87253c0.7137,-1.0264 1.7248,-1.83978 3.509,-1.83978c1.1301,0 1.705,0.19366 2.161,0.52288l-0.8723,2.26585c-0.6741,-0.40669 -1.0508,-0.52289 -1.8834,-0.52289c-1.6058,0 -2.379,0.92958 -2.9143,1.93661v9.6637h-2.4781v-13.63376h2.4781zM142.524,15.26514h2.4781v13.63376h-2.4781zM145.359,10.15246c0,0.98768 -0.7534,1.56867 -1.5266,1.56867c-0.8524,0 -1.6058,-0.56162 -1.6058,-1.56867c0,-0.87147 0.7335,-1.45246 1.6058,-1.45246c0.7732,0 1.5067,0.58099 1.5266,1.45246zM162.27,21.0363v7.882h-2.478v-7.4172c0,-2.84688 -1.3485,-4.18314 -3.9456,-4.18314c-1.586,0 -3.0531,0.75528 -3.9452,1.76234v9.838h-2.4781v-13.63379h2.4781v1.66549c0.9714,-1.04578 2.7359,-1.91725 4.5598,-1.91725c3.628,0 5.809,1.72359 5.809,6.00355zM178.824,22.8761h-10.726c0.218,2.5757 2.141,4.0862 4.877,4.0862c1.804,0 3.39,-0.6197 4.282,-1.4331l0.774,1.9173c-1.349,1.2007 -3.371,1.7817 -5.234,1.7817c-4.52,0 -7.474,-2.8275 -7.474,-7.1268c0,-3.97006 2.617,-7.12675 7.196,-7.12675c3.608,0 6.483,2.47887 6.483,6.23595c0,0.6778 -0.059,1.22 -0.178,1.6655zM176.425,20.8813c-0.119,-2.24644 -1.606,-3.64081 -4.025,-3.64081c-2.557,0 -4.163,1.54931 -4.441,3.64081z" fill="#ffffff" fill-opacity="1"></path></g></g></g></g><g><title>Tapgerine Brand Sign 1</title><g><title>Tapgerine Brand Sign 4</title><g><title>Group</title><g><title>Vector</title><path d="M44.9829,22.0194c0,12.1426 -10.1107,21.9806 -22.5806,21.9806c-0.5155,0 -1.0111,-0.0194 -1.5067,-0.0581c-0.1388,0 -0.2578,0 -0.3965,-0.0194c-0.4362,-0.0387 -0.8525,-0.0774 -1.2887,-0.1355c-0.0793,0 -0.1387,-0.0194 -0.1982,-0.0194c-0.4758,-0.0581 -0.9516,-0.1549 -1.4274,-0.2518c-0.119,-0.0193 -0.2181,-0.0581 -0.337,-0.0774c-0.3965,-0.0969 -0.793,-0.1937 -1.1895,-0.3099c-0.0992,-0.0387 -0.1785,-0.0581 -0.2578,-0.0774c-0.4559,-0.1356 -0.9119,-0.2905 -1.3679,-0.4455c-0.0793,-0.0387 -0.1784,-0.0581 -0.2577,-0.0968c-0.3965,-0.1356 -0.7732,-0.2905 -1.1499,-0.4648c-0.0793,-0.0387 -0.1586,-0.0775 -0.2379,-0.1162c-0.4361,-0.1936 -0.8723,-0.4067 -1.2886,-0.6391c-0.0396,-0.0387 -0.0793,-0.0581 -0.1189,-0.0774c-0.3965,-0.2131 -0.7732,-0.4455 -1.1499,-0.6778c-0.0793,-0.0581 -0.1586,-0.0969 -0.2181,-0.1356c-0.8128,-0.5229 -1.6058,-1.1039 -2.33932,-1.7236c-0.05948,-0.0581 -0.09913,-0.0968 -0.1586,-0.1356c-0.73353,-0.6391 -1.44723,-1.3169 -2.10145,-2.0528c-0.03965,-0.0387 -0.05948,-0.0774 -0.09913,-0.1162c-0.65422,-0.7553 -1.2688,-1.5299 -1.8239,-2.3627c-0.01982,-0.0193 -0.01982,-0.0387 -0.03965,-0.0581c-0.27755,-0.426 -0.53527,-0.8521 -0.793,-1.2781c0,-0.0194 0,-0.0194 0,-0.0194c-0.25772,-0.4454 -0.49562,-0.9102 -0.7137,-1.375c4.16325,2.5176 9.07985,3.9701 14.33345,3.9701c13.4414,0 24.6227,-9.4701 26.8629,-21.9613c1.0111,2.3046 1.6257,4.7835 1.7843,7.3979c0.0198,0.0387 0.0198,0.0968 0.0198,0.1356c0.0198,0.3873 0.0198,0.7552 0.0396,1.2007zM14.6309,23.3363c-5.39245,0 -10.40817,-1.53 -14.6309,-4.1831c0.6344,-4.7641 2.81515,-9.0247 6.0268,-12.35567c3.4892,2.61444 7.8507,4.16377 12.5889,4.16377c6.4828,0 12.2717,-2.90496 16.0582,-7.43665c1.7645,1.12324 3.3703,2.47887 4.7382,4.0088c-4.1632,9.31515 -13.6991,15.80285 -24.7812,15.80285zM21.2128,3.21479c-2.8548,0 -5.5907,-0.44542 -8.1679,-1.23944c2.8349,-1.2588 6.0069,-1.97535 9.3375,-1.97535c2.9341,0 5.7295,0.54225 8.3067,1.52993c-2.9539,1.06514 -6.1457,1.66549 -9.4763,1.68486z" fill="#ffffff" fill-opacity="1"></path></g></g></g></g></g></g></svg>