<?xml version="1.0" encoding="UTF-8"?>
<svg id="SVGDoc" width="174" height="44" xmlns="http://www.w3.org/2000/svg" version="1.1" xmlns:xlink="http://www.w3.org/1999/xlink" xmlns:avocode="https://avocode.com/" viewBox="0 0 174 44"><defs></defs><desc>Generated with Avocode.</desc><g><g><title>Frame</title><g><title>Background</title></g><g><title>path0 fill</title><path d="M44.1065,22c0,-4.9559 -1.6774,-9.7667 -4.7604,-13.65281c-3.083,-3.88615 -7.391,-6.62001 -12.226,-7.75865c-4.8351,-1.13864 -9.9138,-0.61535 -14.4135,1.48509c-4.49969,2.10044 -8.15663,5.65497 -10.37835,10.08767c-2.22172,4.4327 -2.87806,9.484 -1.86268,14.3353c1.01539,4.8513 3.64301,9.2185 7.45714,12.394c3.81409,3.1755 8.59129,4.9732 13.55759,5.102c4.9662,0.1288 9.8306,-1.419 13.8049,-4.3926h-13.7906c-3.4449,-0.0932 -6.7871,-1.1909 -9.6137,-3.1575c-2.82664,-1.9666 -5.01405,-4.716 -6.29213,-7.9087c-1.27808,-3.1927 -1.59087,-6.6889 -0.89975,-10.0569c0.69113,-3.3681 2.3559,-6.4604 4.78877,-8.8953c2.43291,-2.43487 5.52731,-4.10564 8.90121,-4.80601c3.3739,-0.70037 6.8796,-0.39967 10.0841,0.86497c3.2046,1.26464 5.9677,3.43784 7.9482,6.25124c1.9805,2.8135 3.0917,6.1439 3.1963,9.5802v13.728c2.9178,-3.7847 4.4995,-8.4255 4.4989,-13.2z" fill="#ffffff" fill-opacity="1"></path></g><g><title>path1 fill</title><path d="M33.0607,32.9865v0v-9.24v0h-6.8512c-0.4192,0.9661 -1.1491,1.7654 -2.0744,2.2716c-0.9252,0.5062 -1.9932,0.6906 -3.0351,0.5239c-1.04203,-0.1666 -1.99869,-0.6747 -2.71897,-1.4441c-0.72029,-0.7694 -1.16317,-1.7562 -1.25871,-2.8046c-0.09554,-1.0484 0.1617,-2.09869 0.7311,-2.98503c0.56941,-0.88634 1.41853,-1.55823 2.41331,-1.90957c0.99477,-0.35135 2.07857,-0.36213 3.08017,-0.03066c1.0016,0.33148 1.864,0.98632 2.451,1.86115h6.9247c-0.488,-2.00108 -1.5237,-3.82759 -2.9914,-5.27586c-1.4677,-1.44827 -3.3099,-2.46137 -5.321,-2.92631c-2.0112,-0.46494 -4.11224,-0.36346 -6.06895,0.29313c-1.9567,0.65659 -3.69213,1.84248 -5.01275,3.42543c-1.32062,1.58295 -2.17452,3.50073 -2.46648,5.53948c-0.29196,2.03874 -0.01051,4.11834 0.81297,6.00684c0.82348,1.8885 2.15662,3.5118 3.85076,4.6886c1.69414,1.1769 3.68268,1.8613 5.74385,1.9767z" fill="#ffffff" fill-opacity="1"></path></g><g><title>Vector</title><path d="M62.3209,16.35231c0.9265,0.37598 1.7685,0.93276 2.4765,1.63767c0.708,0.70492 1.2677,1.54377 1.6464,2.46737c0.3787,0.92359 0.5687,1.91333 0.5588,2.91114c0,1.49619 -0.4445,2.95881 -1.2775,4.20301c-0.8329,1.2443 -2.0169,2.2143 -3.4022,2.7875c-1.38541,0.5732 -2.91,0.724 -4.3812,0.4331c-1.4712,-0.2908 -2.82297,-1.0101 -3.88452,-2.0671c-1.06155,-1.0569 -1.78523,-2.404 -2.07961,-3.87109c-0.29438,-1.46708 -0.14624,-2.98829 0.4257,-4.37142c0.57194,-1.38312 1.542,-2.56609 2.78763,-3.39943c1.24563,-0.83335 2.71091,-1.27967 4.21072,-1.28257c1.00021,-0.01177 1.9927,0.17584 2.91928,0.55182zM60.92202,27.0467c0.48226,-0.1963 0.91918,-0.4888 1.28408,-0.8597c0.3648,-0.3708 0.6499,-0.81209 0.8376,-1.29677c0.1877,-0.48469 0.2741,-1.00252 0.254,-1.52174c0.0326,-0.5295 -0.0437,-1.06007 -0.2244,-1.55902c-0.1806,-0.49895 -0.4618,-0.95573 -0.8261,-1.3422c-0.3643,-0.38647 -0.80404,-0.69444 -1.29216,-0.90496c-0.48813,-0.21052 -1.01429,-0.31913 -1.54608,-0.31913c-0.53179,0 -1.05794,0.10861 -1.54607,0.31913c-0.48812,0.21052 -0.92788,0.51849 -1.29218,0.90496c-0.36431,0.38647 -0.64544,0.84325 -0.8261,1.3422c-0.18066,0.49895 -0.25702,1.02952 -0.22437,1.55902c-0.02005,0.51796 0.06596,1.03456 0.25278,1.51823c0.18682,0.48368 0.47052,0.92428 0.83378,1.29488c0.36326,0.3706 0.79845,0.6635 1.27898,0.8607c0.48052,0.1972 0.99631,0.2946 1.51584,0.2862c0.52075,0.0104 1.03813,-0.0855 1.5204,-0.2818zM73.1334,18.67516c0.347,-0.86689 0.9613,-1.60126 1.7542,-2.09692c0.7928,-0.49567 1.7232,-0.72695 2.6565,-0.66041v4.12133c-0.5409,-0.12788 -1.1041,-0.12864 -1.6453,-0.00222c-0.5412,0.12642 -1.0455,0.37656 -1.4732,0.73069c-0.4277,0.35413 -0.7671,0.80256 -0.9913,1.30992c-0.2243,0.50735 -0.3272,1.05975 -0.3009,1.61361v6.79064h-3.7049v-14.34397h3.7049zM90.3055,16.13784h3.705v14.40267h-3.705v-1.7013c-0.5604,0.6901 -1.2754,1.2394 -2.0874,1.6036c-0.812,0.3643 -1.6984,0.5334 -2.5878,0.4937c-0.9566,-0.0377 -1.8964,-0.2637 -2.7651,-0.665c-0.8687,-0.4012 -1.6494,-0.9699 -2.297,-1.6732c-0.6477,-0.7034 -1.1496,-1.5275 -1.4768,-2.425c-0.3272,-0.89754 -0.4733,-1.85074 -0.43,-2.80481c-0.0433,-0.95406 0.1028,-1.90726 0.43,-2.80478c0.3272,-0.89753 0.8291,-1.72166 1.4768,-2.42499c0.6476,-0.70334 1.4283,-1.272 2.297,-1.67328c0.8687,-0.40128 1.8085,-0.62727 2.7651,-0.66495c0.8894,-0.0397 1.7758,0.12938 2.5878,0.49365c0.812,0.36426 1.527,0.91355 2.0874,1.60368zM87.8739,27.1322c0.4925,-0.2003 0.9382,-0.4997 1.3094,-0.8796c0.3712,-0.3799 0.6598,-0.83216 0.8478,-1.3284c0.1881,-0.49625 0.2715,-1.02585 0.245,-1.55571c0,-1.05025 -0.4182,-2.05749 -1.1626,-2.80014c-0.7445,-0.74264 -1.7541,-1.15986 -2.8069,-1.15986c-1.0528,0 -2.0625,0.41722 -2.807,1.15986c-0.7444,0.74265 -1.1626,1.74989 -1.1626,2.80014c-0.029,0.53294 0.0537,1.06605 0.2427,1.56535c0.189,0.4993 0.4802,0.95386 0.8551,1.33466c0.3748,0.3808 0.8251,0.6796 1.322,0.8773c0.497,0.1976 1.0298,0.2898 1.5645,0.2707c0.5316,0.0128 1.0602,-0.084 1.5526,-0.2843zM110.6533,21.72583v8.79997h-3.7049v-8.34531c0.0419,-0.3866 -0.0018,-0.77767 -0.1281,-1.14555c-0.1262,-0.36789 -0.332,-0.70361 -0.6027,-0.98343c-0.2707,-0.27981 -0.5996,-0.49689 -0.9637,-0.63588c-0.364,-0.139 -0.7543,-0.19651 -1.143,-0.16847c-1.8084,0 -3.161,1.056 -3.161,3.54933v7.68531h-3.6902v-14.34397h3.6902v1.672c0.4841,-0.66912 1.1306,-1.20455 1.879,-1.55602c0.7483,-0.35147 1.574,-0.50746 2.3993,-0.45332c3.0434,0 5.4251,2.12667 5.4251,5.92534zM124.6792,16.13782h3.6167v13.71337c0,4.6933 -3.7049,6.82 -7.4834,6.82c-1.348,0.0963 -2.6965,-0.1798 -3.8974,-0.7982c-1.2009,-0.6184 -2.2077,-1.5551 -2.9097,-2.7072l3.161,-1.8186c0.343,0.6812 0.8888,1.24 1.5626,1.5997c0.6738,0.3597 1.4426,0.5028 2.2011,0.4096c0.4881,0.0616 0.9838,0.0147 1.4517,-0.1371c0.4678,-0.1519 0.8962,-0.4051 1.2544,-0.7415c0.3583,-0.3364 0.6376,-0.7476 0.8179,-1.2042c0.1803,-0.4567 0.2571,-0.9475 0.2251,-1.4372v-1.5547c-0.5293,0.7084 -1.2236,1.2776 -2.0228,1.6584c-0.7992,0.3807 -1.6793,0.5616 -2.5643,0.527c-0.9542,-0.0056 -1.8977,-0.2007 -2.7755,-0.5737c-0.8778,-0.3731 -1.6725,-0.9168 -2.3375,-1.5994c-0.6651,-0.6825 -1.1873,-1.4903 -1.5362,-2.3763c-0.3489,-0.88595 -0.5175,-1.83233 -0.496,-2.78397c-0.0195,-0.95112 0.1505,-1.89664 0.5001,-2.78171c0.3496,-0.88508 0.8719,-1.6921 1.5366,-2.37427c0.6646,-0.68216 1.4585,-1.22589 2.3354,-1.59966c0.8769,-0.37376 1.8195,-0.57012 2.7731,-0.57769c0.885,-0.03462 1.7651,0.14626 2.5643,0.52701c0.7992,0.38076 1.4935,0.94993 2.0228,1.65833zM122.2127,26.8166c0.4932,-0.1879 0.9422,-0.4754 1.3189,-0.8443c0.3767,-0.36891 0.6731,-0.81142 0.8705,-1.29983c0.1975,-0.48841 0.2918,-1.01221 0.2771,-1.53864c-0.0031,-0.77009 -0.2337,-1.52218 -0.6631,-2.1622c-0.4293,-0.64002 -1.0382,-1.13955 -1.7506,-1.43612c-0.7125,-0.29657 -1.4967,-0.377 -2.2547,-0.23125c-0.758,0.14576 -1.4561,0.51124 -2.007,1.05072c-0.5509,0.53949 -0.9301,1.22903 -1.0902,1.98238c-0.1601,0.75336 -0.094,1.53708 0.1901,2.25314c0.2841,0.71606 0.7735,1.3327 1.407,1.7727c0.6335,0.4401 1.383,0.684 2.1548,0.7013c0.5273,0.0244 1.0541,-0.06 1.5472,-0.2479zM141.2814,16.37216c0.9171,0.38684 1.7447,0.95767 2.4313,1.67704c0.6867,0.71936 1.2177,1.57189 1.5601,2.50462c0.3424,0.93273 0.489,1.92574 0.4305,2.91734c-0.0066,0.4922 -0.0557,0.98292 -0.1471,1.46667h-10.8796c0.2462,0.86157 0.7941,1.60637 1.5442,2.09887c0.7501,0.4926 1.6525,0.7002 2.543,0.5851c0.6136,0.0185 1.2231,-0.1042 1.7814,-0.3586c0.5584,-0.2543 1.0506,-0.6335 1.4384,-1.108l2.9404,1.716c-0.6966,0.9857 -1.629,1.7823 -2.7124,2.3176c-1.0834,0.5353 -2.2837,0.7923 -3.4919,0.7477c-1.0278,0.0726 -2.0595,-0.0713 -3.0281,-0.4221c-0.9685,-0.3509 -1.8523,-0.901 -2.594,-1.6146c-0.7417,-0.7136 -1.3247,-1.5748 -1.7112,-2.5277c-0.3865,-0.95294 -0.5679,-1.97626 -0.5323,-3.00361c-0.0323,-0.99758 0.1398,-1.99125 0.5059,-2.92014c0.3661,-0.92889 0.9184,-1.77345 1.6231,-2.48196c0.7048,-0.70851 1.547,-1.26605 2.4753,-1.63848c0.9283,-0.37242 1.923,-0.5519 2.9232,-0.52742c0.9957,-0.00976 1.9827,0.18483 2.8998,0.57167zM141.9395,22.00449c-0.1292,-0.83913 -0.5631,-1.60162 -1.2191,-2.14245c-0.656,-0.54084 -1.4884,-0.82231 -2.3388,-0.79088c-0.8796,-0.06056 -1.7507,0.20551 -2.4455,0.74702c-0.6948,0.54152 -1.1643,1.32023 -1.3183,2.18631zM159.053,16.13783h3.705v14.40267h-3.705v-1.7013c-0.561,0.6901 -1.276,1.2394 -2.088,1.6036c-0.812,0.3643 -1.698,0.5334 -2.587,0.4937c-0.957,-0.0377 -1.897,-0.2637 -2.7655,-0.665c-0.8688,-0.4012 -1.6494,-0.9699 -2.2971,-1.6732c-0.6476,-0.7034 -1.1495,-1.5275 -1.4767,-2.425c-0.3273,-0.89754 -0.4734,-1.85074 -0.43,-2.80481c-0.0434,-0.95406 0.1027,-1.90726 0.43,-2.80478c0.3272,-0.89753 0.8291,-1.72166 1.4767,-2.42499c0.6477,-0.70334 1.4283,-1.272 2.2971,-1.67328c0.8685,-0.40128 1.8085,-0.62727 2.7655,-0.66495c0.878,-0.0322 1.752,0.13908 2.553,0.50043c0.801,0.36135 1.507,0.90292 2.063,1.58224zM155.01,27.4165c0.535,0.017 1.068,-0.0771 1.565,-0.2764c0.497,-0.1993 0.947,-0.4995 1.322,-0.8815c0.374,-0.3819 0.665,-0.83736 0.854,-1.33741c0.189,-0.50004 0.272,-1.03377 0.243,-1.56736c0,-1.05026 -0.418,-2.0575 -1.163,-2.80015c-0.744,-0.74264 -1.754,-1.15985 -2.807,-1.15985c-1.052,0 -2.062,0.41721 -2.806,1.15985c-0.7449,0.74265 -1.1632,1.74989 -1.1632,2.80015c-0.0286,0.53039 0.0533,1.06095 0.2405,1.55819c0.1872,0.49723 0.4758,0.95038 0.8477,1.33068c0.371,0.3804 0.818,0.6798 1.311,0.8793c0.494,0.1995 1.023,0.2948 1.556,0.2798zM169.638,18.67516c0.347,-0.86689 0.962,-1.60126 1.754,-2.09692c0.793,-0.49567 1.724,-0.72695 2.657,-0.66041v4.12133c-0.541,-0.12788 -1.104,-0.12864 -1.645,-0.00222c-0.541,0.12642 -1.046,0.37656 -1.473,0.73069c-0.428,0.35413 -0.768,0.80256 -0.992,1.30992c-0.224,0.50735 -0.327,1.05975 -0.301,1.61361v6.79064h-3.705v-14.34397h3.705z" fill="#ffffff" fill-opacity="1"></path></g></g></g></svg>