<?xml version="1.0" encoding="UTF-8"?>
<svg id="SVGDoc" width="187" height="48" xmlns="http://www.w3.org/2000/svg" version="1.1" xmlns:xlink="http://www.w3.org/1999/xlink" xmlns:avocode="https://avocode.com/" viewBox="0 0 187 48"><defs></defs><desc>Generated with Avocode.</desc><g><g><title>Frame</title><g><title>Background</title></g><g><title>Vector</title></g><g><title>Vector</title><path d="M37.1907,16.2183l-9.2242,5.2965v10.469l-6.5408,-6.7862l-11.99148,6.7862l-9.22422,-5.2966l9.22422,-5.2137l-9.22422,-5.2966l9.22422,-5.2138l-9.22422,-5.29655l9.22422,-5.29655zM26.2894,20.4803l-15.1781,-8.6068l15.1781,15.7241z" fill="#000000" fill-opacity="1"></path></g><g><title>Vector</title><path d="M186.791,26.7766h-3.27v13.7793h-2.935v-13.738h-3.354v-2.81376h3.354v-5.29655h2.935v5.29655h3.27zM170.02,23.54897c0.99,-0.00636 1.968,0.22062 2.851,0.66206c0.854,0.52662 1.549,1.2697 2.013,2.15173c0.514,1.02854 0.773,2.16334 0.754,3.31034v10.7586h-2.935v-10.5931c0.043,-0.4805 -0.017,-0.9645 -0.176,-1.4206c-0.159,-0.4561 -0.413,-0.8744 -0.746,-1.2277c-0.336,-0.3109 -0.731,-0.55186 -1.164,-0.70829c-0.432,-0.15642 -0.892,-0.22513 -1.352,-0.20201c-1.091,0.00872 -2.138,0.4223 -2.935,1.1586c-0.45,0.4902 -0.794,1.0661 -1.01,1.6923c-0.216,0.6263 -0.301,1.2896 -0.247,1.9491v9.4759h-2.935v-16.55176h2.935v2.06896c0.53,-0.80711 1.266,-1.46175 2.135,-1.89771c0.869,-0.43596 1.839,-0.63778 2.812,-0.58504zM156.813,31.08c-0.037,-0.6794 -0.212,-1.3446 -0.514,-1.9559c-0.303,-0.6114 -0.727,-1.1564 -1.247,-1.6027c-0.984,-0.8198 -2.235,-1.26072 -3.522,-1.2414c-1.378,-0.01895 -2.717,0.4509 -3.774,1.3241c-1.029,0.8941 -1.686,2.1322 -1.845,3.4759zM145.911,33.5628c0.169,1.3827 0.857,2.6525 1.929,3.5586c0.941,0.6935 2.059,1.1149 3.229,1.2172c1.17,0.1023 2.346,-0.1185 3.396,-0.6379c0.778,-0.3539 1.402,-0.9702 1.761,-1.7379h3.019c-0.488,1.4832 -1.461,2.7642 -2.768,3.6413c-1.444,0.9338 -3.137,1.4235 -4.863,1.4069c-1.586,0.0099 -3.147,-0.3895 -4.529,-1.1586c-1.311,-0.742 -2.386,-1.8314 -3.102,-3.1448c-0.753,-1.3703 -1.128,-2.911 -1.09,-4.469c-0.038,-1.558 0.337,-3.0987 1.09,-4.4689c0.716,-1.31348 1.791,-2.40282 3.102,-3.14487c1.382,-0.76911 2.943,-1.16851 4.529,-1.15862c1.539,-0.06207 3.06,0.34224 4.36,1.15862c1.225,0.8059 2.209,1.92021 2.851,3.22757c0.669,1.3678 1.013,2.8677 1.007,4.3862c0.013,0.443 -0.015,0.8863 -0.084,1.3242zM134.465,37.3283c0.903,-0.5189 1.654,-1.2604 2.18,-2.1517c0.496,-0.917 0.755,-1.9402 0.755,-2.9794c0,-1.0391 -0.259,-2.0623 -0.755,-2.9793c-0.526,-0.8914 -1.277,-1.6328 -2.18,-2.1517c-0.9292,-0.48902 -1.9659,-0.74482 -3.0189,-0.74482c-1.053,0 -2.0898,0.2558 -3.0188,0.74482c-0.9032,0.5189 -1.6545,1.2603 -2.1803,2.1517c-0.4955,0.917 -0.7547,1.9402 -0.7547,2.9793c0,1.0392 0.2592,2.0624 0.7547,2.9794c0.5258,0.8913 1.2771,1.6328 2.1803,2.1517c0.9258,0.4973 1.9648,0.7536 3.0188,0.7448c1.054,0.0088 2.093,-0.2475 3.0189,-0.7448zM140.335,24.00414v15.80686c0.033,1.4897 -0.375,2.9566 -1.174,4.2207c-0.761,1.1538 -1.836,2.0719 -3.103,2.6483c-1.313,0.6024 -2.7444,0.9131 -4.1926,0.9103c-1.3595,0.0142 -2.7054,-0.2684 -3.9413,-0.8275c-1.1979,-0.4521 -2.2437,-1.2261 -3.0188,-2.2345c-0.7557,-0.9427 -1.169,-2.1084 -1.174,-3.3104h2.935c0.0012,0.6266 0.207,1.236 0.587,1.738c0.4808,0.619 1.1166,1.1038 1.8448,1.4069c0.8574,0.4225 1.8099,0.6219 2.7673,0.5793c1.4915,0.099 2.9636,-0.3755 4.1086,-1.3242c0.481,-0.4932 0.855,-1.0776 1.1,-1.7178c0.245,-0.6401 0.356,-1.3227 0.326,-2.0063v-2.3172c-0.704,1.0269 -1.654,1.8663 -2.766,2.4438c-1.1118,0.5775 -2.3509,0.8751 -3.6072,0.8665c-1.5065,0.01 -2.9865,-0.3909 -4.2767,-1.1586c-1.2932,-0.7648 -2.3624,-1.8486 -3.1027,-3.1448c-0.7684,-1.3376 -1.1729,-2.8487 -1.1739,-4.3863c0.0009,-1.5114 0.4058,-2.9958 1.1739,-4.3034c0.7167,-1.31344 1.7915,-2.40278 3.1027,-3.14483c1.2991,-0.74698 2.7733,-1.14635 4.2767,-1.15862c1.2874,-0.00309 2.5553,0.30974 3.6892,0.91034c1.08,0.57129 2.002,1.39538 2.684,2.40001v-2.89656zM116.9809,24.00414h2.9349v16.55176h-2.9769zM116.9809,17.38345h2.9349v3.64138h-2.9769zM110.3981,16.68h2.935v23.8759h-2.935zM103.8573,16.68h2.935v23.8759h-2.935zM98.4905,31.1214c-0.0367,-0.6794 -0.2116,-1.3446 -0.5141,-1.9559c-0.3025,-0.6114 -0.7266,-1.1564 -1.2469,-1.6027c-0.9837,-0.8198 -2.2346,-1.26074 -3.522,-1.24142c-1.3779,-0.01895 -2.717,0.45092 -3.7735,1.32412c-1.0287,0.8941 -1.6858,2.1322 -1.8449,3.4759zM87.5891,33.6041c0.0658,0.6899 0.2702,1.36 0.6014,1.971c0.3311,0.611 0.7824,1.1507 1.3273,1.5877c0.9412,0.6935 2.0592,1.1149 3.2291,1.2172c1.1699,0.1023 2.3456,-0.1186 3.3956,-0.6379c0.7779,-0.3539 1.4024,-0.9702 1.761,-1.738h3.0188c-0.4874,1.4832 -1.4609,2.7643 -2.7672,3.6414c-1.4444,0.9338 -3.1371,1.4235 -4.8637,1.4069c-1.5859,0.0099 -3.147,-0.3895 -4.5283,-1.1586c-1.3112,-0.7421 -2.386,-1.8314 -3.1027,-3.1448c-0.7523,-1.3703 -1.1281,-2.911 -1.0901,-4.469c-0.038,-1.558 0.3378,-3.0987 1.0901,-4.469c0.7167,-1.3134 1.7915,-2.40274 3.1027,-3.14479c1.3813,-0.76911 2.9424,-1.16852 4.5283,-1.15862c1.5393,-0.06207 3.0609,0.34224 4.3605,1.15862c1.2248,0.8059 2.2092,1.92021 2.8511,3.22759c0.6684,1.3678 1.0125,2.8677 1.0063,4.3862c0.0139,0.443 -0.0142,0.8863 -0.0838,1.3241zM84.193,26.7766h-3.2704v13.7793h-2.935v-13.738h-3.3543v-2.81376h3.3543v-5.29655h2.893v5.29655h3.2704zM66.7508,37.4524c0.9212,-0.4956 1.6781,-1.2426 2.1803,-2.1517c0.4955,-0.9169 0.7547,-1.9401 0.7547,-2.9793c0,-1.0392 -0.2592,-2.0624 -0.7547,-2.9793c-0.5258,-0.8914 -1.2771,-1.6328 -2.1803,-2.1518c-0.9291,-0.489 -1.9659,-0.74478 -3.0188,-0.74478c-1.053,0 -2.0898,0.25578 -3.0189,0.74478c-0.9211,0.4956 -1.6781,1.2427 -2.1802,2.1518c-0.4955,0.9169 -0.7547,1.9401 -0.7547,2.9793c0,1.0392 0.2592,2.0624 0.7547,2.9793c0.5258,0.8914 1.277,1.6328 2.1802,2.1517c0.9259,0.4973 1.9648,0.7536 3.0189,0.7448c1.0564,0.0298 2.1008,-0.2279 3.0188,-0.7448zM72.6627,17.38345v23.17245h-2.935v-2.8138c-0.7036,0.986 -1.6201,1.8057 -2.6834,2.4c-1.1378,0.583 -2.4083,0.868 -3.6897,0.8276c-1.4785,-0.0014 -2.9285,-0.4021 -4.1928,-1.1587c-1.2927,-0.7654 -2.3619,-1.849 -3.1027,-3.1448c-0.7696,-1.3371 -1.1743,-2.8485 -1.1743,-4.3862c0,-1.5377 0.4047,-3.0491 1.1743,-4.3862c0.7408,-1.29576 1.81,-2.37941 3.1027,-3.14483c1.2643,-0.75661 2.7143,-1.1573 4.1928,-1.15862c1.2538,-0.04754 2.4987,0.22447 3.615,0.78979c1.1163,0.56532 2.0662,1.40489 2.7581,2.43776v-9.43445zM46.3317,37.4938c0.9212,-0.4956 1.6782,-1.2426 2.1803,-2.1517c0.4955,-0.917 0.7547,-1.9402 0.7547,-2.9793c0,-1.0392 -0.2592,-2.0624 -0.7547,-2.9794c-0.5258,-0.8913 -1.277,-1.6328 -2.1803,-2.1517c-0.929,-0.489 -1.9658,-0.7448 -3.01879,-0.7448c-1.05296,0 -2.08974,0.2558 -3.01883,0.7448c-0.92116,0.4956 -1.67812,1.2426 -2.18027,2.1517c-0.49551,0.917 -0.75471,1.9402 -0.75471,2.9794c0,1.0391 0.2592,2.0623 0.75471,2.9793c0.52581,0.8914 1.27706,1.6328 2.18027,2.1517c0.92584,0.4973 1.96479,0.7536 3.01883,0.7448c1.05649,0.0297 2.10079,-0.2279 3.01879,-0.7448zM52.2017,24.00414v16.55176h-2.935v-2.8138c-0.7035,0.986 -1.62,1.8057 -2.6834,2.4c-1.1378,0.583 -2.40827,0.868 -3.68967,0.8276c-1.5067,-0.0047 -2.98486,-0.406 -4.28203,-1.1625c-1.29717,-0.7564 -2.36637,-1.8407 -3.09734,-3.141c-0.76964,-1.3371 -1.17426,-2.8485 -1.17426,-4.3862c0,-1.5377 0.40462,-3.0491 1.17426,-4.3862c0.73097,-1.30027 1.80017,-2.38456 3.09734,-3.14103c1.29717,-0.75647 2.77533,-1.15774 4.28203,-1.16242c1.25374,-0.04754 2.49877,0.22447 3.61497,0.78979c1.1163,0.56532 2.0662,1.40489 2.7581,2.43776v-2.81376z" fill="#000000" fill-opacity="1"></path></g></g></g></svg>