<?xml version="1.0" encoding="UTF-8"?>
<svg id="SVGDoc" width="138" height="61" xmlns="http://www.w3.org/2000/svg" version="1.1" xmlns:xlink="http://www.w3.org/1999/xlink" xmlns:avocode="https://avocode.com/" viewBox="0 0 138 61"><defs></defs><desc>Generated with Avocode.</desc><g><g><title>logo</title><g><title>Background</title></g><g><title>Group</title><g><title>Vector</title><path d="M26.53923,4.67v0l0.21467,1.525c-6.85399,13.8622 1.886,12.7337 1.886,12.7337v0l1.104,-0.1982v0l0.16867,0.3355c16.23803,-1.83 25.11603,6.5728 25.11603,6.5728c1.1806,-19.88605 -28.48937,-20.9688 -28.48937,-20.9688v0z" fill="#f8b829" fill-opacity="1"></path></g><g><title>Vector</title><path d="M16.3497,51.4996c-0.69,4.575 3.0667,7.2285 3.6647,5.7645c1.656,-2.1502 2.2387,-1.525 3.0667,-4.758c0.3022,-0.4015 0.6523,-0.765 1.0426,-1.0827c0.8382,-0.8642 1.6458,-1.7487 2.4227,-2.6535c2.2915,-2.5782 4.2489,-5.4318 5.8267,-8.4943c1.7504,-3.0921 2.3886,-6.6855 1.8093,-10.187c-0.6272,-1.7712 -1.5216,-3.4373 -2.6527,-4.941c-0.3453,-0.7872 -0.5027,-1.6432 -0.46,-2.501c-0.038,-1.2832 -0.4248,-2.5321 -1.1193,-3.6142c-0.3586,-0.3845 -0.6313,-0.8401 -0.8005,-1.3368c-0.1691,-0.4967 -0.2307,-1.0234 -0.1808,-1.5455c0.1993,-1.159 0.1993,-2.3027 0.368,-3.46172c0.1062,-2.16571 -0.2927,-4.32652 -1.1654,-6.3135c0,0 -1.0733,-1.891 -2.024,-1.41825c-1.6926,-1.06585 -3.6599,-1.62022 -5.6631,-1.59586c-2.0032,0.02436 -3.9563,0.62642 -5.6222,1.73311c0,0 -21.9574,13.95372 -2.16202,40.76322c-0.598,3.477 1.53334,7.0608 3.18932,9.4398" fill="#005d86" fill-opacity="1"></path></g><g><title>Vector</title><path d="M26.4537,20.8904v0l-2.9747,-13.48099v0c0,0 -1.748,-5.185 -6.34801,1.35725l-0.76667,-1.0065c-4.232,5.96275 -9.96666,13.11504 -8.694,20.86204c0.18511,1.4299 0.68162,2.8025 1.45491,4.0219c0.77329,1.2195 1.80474,2.2565 3.02243,3.0388c1.79439,1.2393 3.9668,1.8183 6.14384,1.6374c2.177,-0.1809 4.2227,-1.1104 5.7855,-2.6286c2.392,-1.9825 4.3393,-6.0085 2.3767,-13.8013z" fill="#ffffff" fill-opacity="1"></path></g><g><title>Vector</title><path d="M29.91746,19.10368c0,0 14.19864,-2.196 25.11604,6.57272c0,0 -10.2734,-13.40472 -26.64937,-10.91897c0.01533,0 -1.16533,3.294 1.53333,4.34625z" fill="#f19320" fill-opacity="1"></path></g><g><title>Vector</title><path d="M55.02779,25.68193c0.28856,-3.45904 -0.59094,-6.91501 -2.49934,-9.821c-0.15333,-0.19825 -1.33399,2.36375 -1.34933,2.5925c-0.06273,1.06859 0.19905,2.13126 0.75133,3.05c0.782,1.4335 2.68334,2.60775 3.06667,4.148" fill="#e95253" fill-opacity="1"></path></g><g><title>Vector</title><path d="M1.53,45.05c2.00696,0.75962 4.19688,0.90305 6.28667,0.41175c2.92866,0.3965 4.46203,1.3115 7.95803,1.708c4.278,0 8.5253,-0.4575 12.7726,-0.854c1.38,-0.122 4.4467,-0.28975 5.612,0.793c0.6747,0.62525 0.4754,2.318 0.4907,3.2025c-2.5347,-0.96122 -5.2035,-1.52707 -7.912,-1.6775c-3.0667,0 -6.2407,0.13725 -9.3533,0.10675c-2.1232,0.00622 -4.2426,-0.17752 -6.3327,-0.549c-1.94733,-0.366 -3.864,-0.86925 -5.81133,-1.26575c-1.41067,-0.305 -3.128,-0.549 -3.71067,-1.87575z" fill="#9b5f48" fill-opacity="1"></path></g><g><title>Vector</title><path d="M28.876,47.78925c0,0.488 -0.42933,1.525 -0.828,1.525c-0.39867,0 -0.828,-1.02175 -0.828,-1.525v-1.72325c0,-0.488 0.30667,-0.976 0.70533,-0.976c0.24112,0.03666 0.46287,0.1528 0.6297,0.32978c0.16683,0.17698 0.26906,0.40455 0.2903,0.64622z" fill="#969595" fill-opacity="1"></path></g><g><title>Vector</title><path d="M27.21733,48.03975c0,0.38125 -0.30666,1.17425 -0.62866,1.17425c-0.322,0 -0.62867,-0.793 -0.62867,-1.17425v-1.35725c0,-0.38125 0.23,-0.7625 0.552,-0.7625c0.1844,0.02849 0.3529,0.1204 0.47618,0.25972c0.12328,0.13933 0.19352,0.31725 0.19848,0.50278z" fill="#838383" fill-opacity="1"></path></g><g><title>Vector</title><path d="M12.01,47.78925c0,0.488 0.42933,1.525 0.828,1.525c0.39867,0 0.828,-1.02175 0.828,-1.525v-1.72325c0,-0.488 -0.30667,-0.976 -0.70533,-0.976c-0.24112,0.03666 -0.46287,0.1528 -0.62969,0.32978c-0.16683,0.17698 -0.26906,0.40455 -0.29031,0.64622z" fill="#969595" fill-opacity="1"></path></g><g><title>Vector</title><path d="M13.66,48.03975c0,0.38125 0.30667,1.17425 0.62867,1.17425c0.322,0 0.62866,-0.793 0.62866,-1.17425v-1.35725c0,-0.38125 -0.23,-0.7625 -0.552,-0.7625c-0.1844,0.02849 -0.35291,0.1204 -0.47618,0.25972c-0.12328,0.13933 -0.19351,0.31725 -0.19848,0.50278z" fill="#838383" fill-opacity="1"></path></g><g><title>Vector</title><path d="M29.34658,16.5575c-0.00299,0.8753 0.19085,1.7403 0.56734,2.5315c-2.53,-0.8998 -1.62534,-4.1175 -1.62534,-4.1175c0.72067,-7.68604 -2.77533,-9.86678 -2.51466,-10.26328c1.794,-0.854 2.63733,0.80826 2.97466,1.52501c1.87067,4.65125 1.196,7.35049 0.828,8.21975c-0.20559,0.68152 -0.28355,1.39492 -0.23,2.10452z" fill="#003b55" fill-opacity="1"></path></g><g><title>Vector</title><path d="M26.5395,11.62133c0.6747,3.599 -1.1347,5.64247 -4.72268,5.68827c-2.76,0 -6.77733,-0.5795 -7.16067,-3.93452c-0.322,-2.91275 1.53334,-6.8625 4.508,-7.747c4.12467,-1.2505 6.73135,2.45525 7.39065,5.99325z" fill="#f8b829" fill-opacity="1"></path></g><g><title>Vector</title><path d="M24.3484,11.36357c0.14158,0.42356 0.17148,0.87618 0.08684,1.31453c-0.08465,0.43835 -0.281,0.84775 -0.57028,1.18901c-0.28927,0.34127 -0.66178,0.60297 -1.08186,0.76007c-0.42009,0.15709 -0.87368,0.20431 -1.31737,0.13714c-1.748,0 -4.186,-0.41175 -4.33933,-2.5315c-0.08206,-0.96414 0.14534,-1.92933 0.64952,-2.75685c0.50418,-0.82751 1.25918,-1.47474 2.15648,-1.84865c2.46866,-0.68625 4.002,1.525 4.37,3.67525z" fill="#005d86" fill-opacity="1"></path></g><g><title>Vector</title><path d="M22.99867,10.90263c0,0.56825 -0.22697,1.11324 -0.63099,1.51506c-0.40402,0.40182 -0.95198,0.62756 -1.52334,0.62756c-0.57137,0 -1.11933,-0.22574 -1.52335,-0.62756c-0.40402,-0.40182 -0.63099,-0.94681 -0.63099,-1.51506c0,-0.56826 0.22697,-1.11325 0.63099,-1.51507c0.40402,-0.40182 0.95198,-0.62756 1.52335,-0.62756c0.57136,0 1.11932,0.22574 1.52334,0.62756c0.40402,0.40182 0.63099,0.94681 0.63099,1.51507z" fill="#151410" fill-opacity="1"></path></g><g><title>Vector</title><path d="M21.14733,9.54622c0,0.38125 -0.33733,0 -0.33733,0" fill="#ffffff" fill-opacity="1"></path></g><g><title>Vector</title><path d="M19.93806,9.52992c-0.21467,0 -0.26067,0.22875 -0.29133,0.47275c-0.05782,0.02189 -0.10997,0.05639 -0.15262,0.10096c-0.04265,0.04457 -0.07472,0.09808 -0.09384,0.1566c-0.01912,0.05852 -0.02482,0.12055 -0.01666,0.18154c0.00816,0.06099 0.02995,0.1194 0.06379,0.17091c0,0 1.04266,-0.976 1.11933,-0.915c-0.08703,-0.07036 -0.18801,-0.12168 -0.29634,-0.15058c-0.10833,-0.02891 -0.22157,-0.03476 -0.33233,-0.01717z" fill="#ffffff" fill-opacity="1"></path></g><g><title>Group</title><g><title>Vector</title><path d="M54.1995,44.7161c0.1209,-0.0028 0.2409,0.0202 0.3521,0.0676c0.1111,0.0474 0.2107,0.1179 0.2919,0.2069l1.8094,1.9215c-2.7447,3.477 -8.004,4.2548 -12.02136,2.7755c-1.99701,-0.8121 -3.7016,-2.2039 -4.89141,-3.9939c-1.18982,-1.79 -1.80963,-3.895 -1.77859,-6.0406c-0.16509,-2.17374 0.32052,-4.34747 1.39563,-6.24717c1.0751,-1.89971 2.69159,-3.44038 4.64571,-4.42781c2.01657,-0.93344 4.26552,-1.25339 6.46432,-0.91966c2.1989,0.33373 4.2495,1.30626 5.8943,2.79541l-1.5333,2.074c-0.828,1.1895 -2.1007,-0.122 -2.9593,-0.53375c-1.2739,-0.58402 -2.6945,-0.77524 -4.07869,-0.549c-1.42077,0.29229 -2.70024,1.05425 -3.63014,2.16185c-0.9299,1.1076 -1.45548,2.49563 -1.4912,3.93813c-0.22578,1.3669 -0.09321,2.7686 0.38491,4.0696c0.47812,1.301 1.28561,2.4573 2.34443,3.3572c1.20988,0.8061 2.64999,1.2002 4.10419,1.1232c1.4542,-0.077 2.8441,-0.6209 3.9611,-1.5502c0.2127,-0.1561 0.4719,-0.2366 0.736,-0.2288z" fill="#ffffff" fill-opacity="1"></path></g><g><title>Vector</title><path d="M62.86667,27.62v0v22.4785v0h-4.21667v0v-22.4785v0z" fill="#ffffff" fill-opacity="1"></path></g><g><title>Vector</title><path d="M70.62067,34.56v0v15.555v0h-4.17067v0v-15.555v0z" fill="#ffffff" fill-opacity="1"></path></g><g><title>Vector</title><path d="M71.13268,30.03763c0,3.24825 -5.18268,3.2635 -5.18268,0" fill="#ffffff" fill-opacity="1"></path></g><g><title>Vector</title><path d="M85.5443,38.01738c-0.6594,0.8845 -1.3647,0.3355 -2.1007,0c-0.90727,-0.50949 -1.96857,-0.67729 -2.98999,-0.47275c-2.116,0.47275 -2.72933,2.623 -2.79066,4.575c-0.06134,1.952 0.35266,4.17847 2.28466,4.95627c0.49236,0.1871 1.01746,0.274 1.54421,0.2557c0.52675,-0.0184 1.04445,-0.1416 1.52246,-0.3625c0.75132,-0.3507 1.82462,-1.6775 2.60662,-0.6557l1.196,1.525c-1.0805,1.1383 -2.4675,1.9434 -3.99542,2.3193c-1.52797,0.3758 -3.1324,0.3066 -4.62187,-0.1996c-1.46803,-0.5873 -2.71738,-1.612 -3.57665,-2.9335c-0.85927,-1.3214 -1.28637,-2.875 -1.22268,-4.44747c-0.14315,-1.60541 0.22374,-3.21503 1.04898,-4.6021c0.82523,-1.38708 2.06723,-2.48169 3.55102,-3.12965c1.45935,-0.5597 3.04936,-0.69198 4.58192,-0.38119c1.5326,0.31079 2.9436,1.05165 4.0661,2.13494z" fill="#ffffff" fill-opacity="1"></path></g><g><title>Vector</title><path d="M93.07,27.62v0v12.7642v0h0.69c0.2099,0.01 0.41883,-0.0339 0.60678,-0.1274c0.18794,-0.0934 0.34859,-0.2334 0.46655,-0.4063l3.45,-4.575c0.15892,-0.22338 0.37082,-0.40428 0.6169,-0.52665c0.24607,-0.12237 0.51877,-0.18243 0.79377,-0.17485h3.818v0l-4.462,5.6425c-0.32941,0.4494 -0.74663,0.828 -1.22667,1.1133c0.45165,0.3418 0.82748,0.7727 1.104,1.2657l4.82997,7.4878v0h-3.7566c-0.2785,0.0195 -0.557,-0.0369 -0.8056,-0.1632c-0.2486,-0.1263 -0.45784,-0.3177 -0.60509,-0.5536l-3.52668,-5.7035c-0.10634,-0.1973 -0.27004,-0.3582 -0.46973,-0.4616c-0.19968,-0.1034 -0.42607,-0.1445 -0.6496,-0.1179h-0.874v0v7.015v0h-4.14v0v-22.4785v0z" fill="#ffffff" fill-opacity="1"></path></g><g><title>Vector</title><path d="M109.61599,27.62v0v12.7642v0h0.69001c0.20989,0.01 0.41883,-0.0339 0.60677,-0.1274c0.18795,-0.0934 0.3486,-0.2334 0.46656,-0.4063l3.45,-4.575c0.15891,-0.22338 0.37082,-0.40428 0.61687,-0.52665c0.2461,-0.12237 0.5188,-0.18244 0.7938,-0.17485h3.818v0l-4.4927,5.673c-0.32938,0.4494 -0.7466,0.828 -1.22664,1.1132c0.45165,0.3419 0.82749,0.7728 1.10404,1.2658l4.83,7.4877v0h-3.7414c-0.2784,0.0196 -0.557,-0.0368 -0.8056,-0.1631c-0.2486,-0.1263 -0.45778,-0.3177 -0.60503,-0.5536l-3.51134,-5.7188c-0.10634,-0.1973 -0.27005,-0.3582 -0.46974,-0.4615c-0.19968,-0.1034 -0.42607,-0.1445 -0.6496,-0.118h-0.874v0v7.015v0h-4.18599v0v-22.4937v0z" fill="#ffffff" fill-opacity="1"></path></g><g><title>Vector</title><path d="M128.02934,54.2705c-0.10729,0.2666 -0.29776,0.492 -0.54341,0.643c-0.24564,0.1509 -0.53349,0.2196 -0.82126,0.1957h-3.06667v0l2.91334,-6.3135v0l-6.27134,-14.30446v0h3.66467c0.24822,-0.01128 0.49381,0.05462 0.70265,0.18853c0.20884,0.13391 0.37056,0.3292 0.46268,0.55872l2.97467,7.45725c0.21467,0.58966 0.39867,1.17933 0.55201,1.769c0.184,-0.59475 0.39866,-1.1895 0.62866,-1.78425l2.75996,-7.42675c0.0922,-0.22325 0.2496,-0.41384 0.4519,-0.54708c0.2023,-0.13323 0.4402,-0.20297 0.6828,-0.20017h3.3427v0z" fill="#ffffff" fill-opacity="1"></path></g></g></g></g></g></svg>