<svg xmlns="http://www.w3.org/2000/svg" width="61" height="16" viewBox="0 0 61 16"><g><g><path d="M10.73 12.33H3.921L2.7 15.792H0L5.736.218h3.18l5.736 15.575h-2.688zm-.788-2.239l-2.61-7.36-2.612 7.36zM22.582 16c-1.493 0-2.837-.326-4.032-.978a7.055 7.055 0 0 1-2.813-2.79c-.681-1.209-1.022-2.621-1.022-4.237 0-1.61.341-3.018 1.022-4.227A7.055 7.055 0 0 1 18.55.978C19.745.325 21.09 0 22.582 0c1.085 0 2.098.177 3.037.53.94.353 1.761.862 2.464 1.529a6.917 6.917 0 0 1 1.633 2.386l-2.436.928a4.657 4.657 0 0 0-1.852-2.162c-.834-.517-1.783-.776-2.846-.776-.99 0-1.885.223-2.682.667-.798.444-1.426 1.086-1.885 1.927-.459.841-.688 1.83-.688 2.966 0 1.143.23 2.135.688 2.976.459.84 1.087 1.483 1.885 1.927.797.444 1.691.667 2.682.667 1.07 0 2.021-.257 2.852-.77a4.635 4.635 0 0 0 1.846-2.157l2.436.928a6.941 6.941 0 0 1-1.633 2.375 7.243 7.243 0 0 1-2.464 1.53c-.94.352-1.952.529-3.037.529zm23.948-.207L45.503 3.495l-4.469 12.297h-1.639L34.948 3.518 33.91 15.793h-2.6L32.556.218h3.638l4.01 11.01L44.246.217h3.638l1.235 15.575zm8.269-13.248v4.314h5.354v2.304h-5.354v4.292h6.053v2.338h-8.697V.218h8.697v2.327z"/></g></g></svg>