<?xml version="1.0" encoding="UTF-8"?>
<svg id="SVGDoc" width="123" height="38" xmlns="http://www.w3.org/2000/svg" version="1.1" xmlns:xlink="http://www.w3.org/1999/xlink" xmlns:avocode="https://avocode.com/" viewBox="0 0 123 38"><defs></defs><desc>Generated with Avocode.</desc><g><g><title>Shape</title><path d="M64.8235,9.54755c0,1.36935 -1.1143,2.47245 -2.4977,2.47245c-1.3833,0 -2.4976,-1.1031 -2.4976,-2.47245c0,-1.36937 1.0759,-2.47247 2.4976,-2.47247c1.4218,0.03803 2.4977,1.14114 2.4977,2.47247zM54.5254,14.5305c0,-0.2662 0.2306,-0.5325 0.538,-0.5325h3.1125v14.3023h-3.1125c-0.3074,0 -0.538,-0.2282 -0.538,-0.5325v-0.6467c0,0 -1.1528,1.5596 -3.7273,1.5596c-4.2268,0 -7.4546,-3.1952 -7.4546,-7.5316c0,-4.3743 3.2662,-7.5315 7.4546,-7.5315c2.5361,0 3.7273,1.5215 3.7273,1.5215zM54.5254,18.6006c-0.5379,-0.7988 -1.7676,-1.5596 -3.1125,-1.5596c-2.4592,0 -4.3421,1.5216 -4.3421,4.1081c0,2.5866 1.8829,4.1082 4.3421,4.1082c1.3834,0 2.5361,-0.7228 3.1125,-1.5596zM60.4814,13.998h3.6889v14.3023h-3.6889zM123,21.1491c0,4.3364 -3.266,7.5316 -7.455,7.5316c-2.536,0 -3.727,-1.5596 -3.727,-1.5596v0.6467c0,0.2662 -0.23,0.5325 -0.538,0.5325h-3.112v-21.18719h3.689v8.02599c0,0 1.191,-1.5215 3.727,-1.5215c4.15,0 7.416,3.1952 7.416,7.5315zM119.311,21.1111c0,-2.5866 -1.883,-4.1081 -4.342,-4.1081c-1.306,0 -2.536,0.7988 -3.112,1.5596v5.0971c0.576,0.8368 1.69,1.5595 3.112,1.5595c2.459,0 4.342,-1.5215 4.342,-4.1081zM106.246,28.3383h-3.688v-8.1021c0,-2.3583 -0.769,-3.3093 -2.844,-3.3093c-1.1143,0 -2.2671,0.5706 -2.9972,1.4074v9.966h-3.6888v-14.3023h2.9203c0.3074,0 0.538,0.2663 0.538,0.5325v0.6086c1.0759,-1.1031 2.4976,-1.5215 3.9197,-1.5215c1.614,0 2.958,0.4565 4.034,1.3694c1.307,1.0651 1.806,2.4344 1.806,4.8308zM91.4909,21.1491c0,4.3364 -3.2662,7.5316 -7.4546,7.5316c-2.536,0 -3.7272,-1.5596 -3.7272,-1.5596v0.6467c0,0.2662 -0.2306,0.5325 -0.538,0.5325h-3.1125v-21.18719h3.6889v8.02599c0,0 1.1912,-1.5215 3.7273,-1.5215c4.1884,0 7.4546,3.1952 7.4161,7.5315zM87.8021,21.1111c0,-2.5866 -1.8829,-4.1081 -4.3421,-4.1081c-1.3065,0 -2.5361,0.7988 -3.1125,1.5596v5.0971c0.5764,0.8368 1.6907,1.5595 3.1125,1.5595c2.4592,0 4.3421,-1.5215 4.3421,-4.1081zM73.4693,13.6176c1.1143,0 1.6907,0.1902 1.6907,0.1902v3.3854c0,0 -3.074,-1.027 -4.9953,1.1411v10.004h-3.6889v-14.3403h3.1125c0.3074,0 0.538,0.2663 0.538,0.5325v0.6086c0.6916,-0.7988 2.1902,-1.5215 3.343,-1.5215zM35.1589,27.007c0.4995,1.4074 0.6532,2.7387 0.3458,4.0701c-0.4227,2.8148 -2.3055,5.2492 -4.9953,6.3143c-0.9568,0.4184 -2.0328,0.6086 -3.1087,0.6086c-0.3074,0 -0.6916,-0.038 -0.999,-0.0761c-1.2681,-0.1521 -2.5746,-0.5705 -3.8426,-1.2933c-1.537,-0.8748 -3.0741,-2.1301 -4.7648,-3.9559c-1.6907,1.8258 -3.1893,3.0811 -4.7648,3.9559c-1.268,0.7228 -2.5745,1.1412 -3.84256,1.2933c-0.3074,0.0381 -0.69166,0.0761 -0.99907,0.0761c-1.07591,0 -2.11341,-0.1902 -3.11248,-0.6086c-2.65137,-1.0651 -4.57266,-3.4615 -4.99534,-6.3143c-0.19213,-1.3694 -0.03842,-2.7007 0.46111,-4.1081c0.19213,-0.4945 0.38426,-0.951 0.57639,-1.3694c0.3074,-0.6847 0.61481,-1.3313 0.88379,-1.9399l0.03842,-0.0761c2.65138,-5.7057 5.5333,-11.4875 8.49204,-17.19321l0.1153,-0.22823c0.3074,-0.57057 0.6148,-1.17918 0.9222,-1.78779c0.3843,-0.68468 0.807,-1.4074 1.3834,-2.09209c1.268,-1.44544 2.9972,-2.28228 4.9184,-2.28228c1.8829,0 3.6505,0.83684 4.8801,2.35836c0.6148,0.68468 0.9991,1.40741 1.3833,2.09209c0.3074,0.60861 0.6148,1.21722 0.9223,1.78779l0.1152,0.22823c2.9972,5.70573 5.8369,11.48753 8.4883,17.19323l0.0384,0.038c0.269,0.6086 0.5764,1.2553 0.8838,1.9399c0.1921,0.4185 0.3842,0.913 0.5764,1.3694zM21.7137,21.9099c0.1921,-0.8368 0.2306,-1.6356 0.1153,-2.3203c-0.0769,-0.6086 -0.3074,-1.1412 -0.6148,-1.5976c-0.6917,-1.0651 -1.9597,-1.6737 -3.3815,-1.6737c-1.4217,0 -2.6513,0.6467 -3.3814,1.6737c-0.3074,0.4564 -0.538,0.989 -0.6148,1.5976c-0.1153,0.6847 -0.0769,1.4454 0.1152,2.3203c0.4611,2.0541 1.806,4.4885 3.881,7.0751c2.075,-2.6246 3.4199,-5.0591 3.881,-7.0751zM32.8918,27.8438c-0.1153,-0.3803 -0.3075,-0.7607 -0.4996,-1.2172c-0.3074,-0.6086 -0.5764,-1.2933 -0.8838,-1.9019v-0.038c-2.6475,-5.6677 -5.491,-11.4495 -8.4114,-17.11713l-0.1152,-0.22823c-0.3074,-0.57057 -0.6148,-1.17918 -0.9223,-1.74975c-0.3074,-0.60861 -0.6532,-1.17918 -1.0759,-1.67367c-0.8069,-0.91292 -1.8828,-1.40741 -3.074,-1.40741c-1.1912,0 -2.2671,0.49449 -3.0741,1.40741c-0.4227,0.49449 -0.7685,1.06506 -1.0759,1.67367c-0.3074,0.57057 -0.6148,1.17918 -0.9222,1.74975l-0.1153,0.22823c-2.95877,5.62963 -5.80227,11.41143 -8.45365,17.07903l-0.03842,0.0761c-0.30741,0.6467 -0.61481,1.2933 -0.88379,1.9019c-0.19213,0.4565 -0.38426,0.8369 -0.49954,1.2172c-0.38425,1.0651 -0.4611,2.0161 -0.34583,2.967c0.26898,1.978 1.61388,3.6897 3.49674,4.4505c0.88379,0.3423 1.88286,0.4945 2.92035,0.3803c0.96064,-0.1141 1.92124,-0.4184 2.92034,-0.9889c1.3833,-0.7608 2.8051,-1.94 4.3805,-3.6897c-2.4976,-3.0811 -4.0731,-5.934 -4.6495,-8.4445c-0.3074,-1.1411 -0.3458,-2.2442 -0.1921,-3.2332c0.1537,-0.951 0.4995,-1.8258 1.0375,-2.5866c1.1912,-1.6737 3.1893,-2.7007 5.418,-2.7007c2.2287,0 4.2268,0.989 5.418,2.7007c0.538,0.7608 0.8838,1.6356 1.0375,2.5866c0.1153,0.989 0.0769,2.054 -0.1921,3.2332c-0.5764,2.5105 -2.1134,5.3253 -4.6495,8.4064c1.6139,1.7498 2.9972,2.929 4.3805,3.6897c0.9991,0.5706 1.9597,0.8749 2.9204,0.989c0.9991,0.1141 1.9981,0 2.9203,-0.3804c1.8791,-0.7607 3.224,-2.4724 3.4929,-4.4504c0.1537,-0.989 0.0385,-1.94 -0.2689,-2.929z" fill="#b9b9b9" fill-opacity="1"></path></g></g></svg>