<?xml version="1.0" encoding="UTF-8"?>
<svg id="SVGDoc" width="95" height="49" xmlns="http://www.w3.org/2000/svg" version="1.1" xmlns:xlink="http://www.w3.org/1999/xlink" xmlns:avocode="https://avocode.com/" viewBox="0 0 95 49"><defs></defs><desc>Generated with Avocode.</desc><g><g><title>Shape</title><path d="M92.7789,46.589h0.4723l0.651,1.7489h0.0128l0.6255,-1.7489h0.4595v2.1237h-0.3064v-1.7364h-0.0127l-0.651,1.7364h-0.2936l-0.6382,-1.7364h-0.0128v1.7364h-0.3064zM92.6258,46.589v0.2499h-0.7404v1.8738h-0.3063v-1.8738h-0.7404v-0.2499zM95,19.4438c0,1.1118 -0.9191,2.0238 -2.0551,2.0238c-1.1361,0 -2.0679,-0.912 -2.0679,-2.0238v-4.2472c0,-1.1118 0.9318,-2.0113 2.0679,-2.0113c1.136,0 2.0551,0.8995 2.0551,2.0113zM83.6649,19.4438c0,1.1118 -0.919,2.0238 -2.0934,2.0238c-1.136,0 -2.0551,-0.912 -2.0551,-2.0238v-9.8062c0,-1.11803 0.9191,-2.02246 2.0551,-2.02246c1.1744,0 2.0934,0.90443 2.0934,2.02246zM72.2916,23.4663c0,1.1243 -0.9191,2.0237 -2.0551,2.0237c-1.1361,0 -2.0679,-0.8994 -2.0679,-2.0237v-21.44884c0,-1.11304 0.9318,-2.01746 2.0679,-2.01746c1.136,0 2.0551,0.90442 2.0551,2.01746zM60.931,19.4438c0,1.1118 -0.919,2.0238 -2.0679,2.0238c-1.136,0 -2.0551,-0.912 -2.0551,-2.0238v-9.8062c0,-1.11803 0.9191,-2.02246 2.0551,-2.02246c1.1489,0 2.0679,0.90443 2.0679,2.02246zM49.5704,19.4438c0,1.1118 -0.9318,2.0238 -2.0678,2.0238c-1.1361,0 -2.0679,-0.912 -2.0679,-2.0238v-4.2472c0,-1.1118 0.9318,-2.0113 2.0679,-2.0113c1.136,0 2.0678,0.8995 2.0678,2.0113zM38.2226,19.4438c0,1.1118 -0.9318,2.0238 -2.0679,2.0238c-1.1488,0 -2.0806,-0.912 -2.0806,-2.0238v-9.8062c0,-1.11803 0.9318,-2.02246 2.0806,-2.02246c1.1361,0 2.0679,0.90443 2.0679,2.02246zM26.862,23.4663c0,1.1243 -0.9318,2.0237 -2.0678,2.0237c-1.1489,0 -2.0679,-0.8994 -2.0679,-2.0237v-21.44884c0,-1.11304 0.919,-2.01746 2.0679,-2.01746c1.136,0 2.0678,0.90442 2.0678,2.01746zM15.5015,19.4438c0,1.1118 -0.9319,2.0238 -2.0679,2.0238c-1.1489,0 -2.0679,-0.912 -2.0679,-2.0238v-9.8062c0,-1.11803 0.919,-2.02246 2.0679,-2.02246c1.136,0 2.0679,0.90443 2.0679,2.02246zM4.13576,19.4438c0,1.1118 -0.92799,2.0238 -2.0666,2.0238c-1.13989,0 -2.06916,-0.912 -2.06916,-2.0238v-4.2472c0,-1.1118 0.92927,-2.0113 2.06916,-2.0113c1.13861,0 2.0666,0.8995 2.0666,2.0113zM46.8388,36.2331c-0.0638,-0.0125 -1.8254,-0.4871 -3.2678,-0.4871c-1.6594,0 -2.5657,0.5371 -2.5657,1.3241c0,0.9744 1.2254,1.3242 1.902,1.5365l1.1488,0.3498c2.7061,0.8495 3.9443,2.6608 3.9443,4.6221c0,4.0599 -3.6507,5.4215 -6.8419,5.4215c-2.2083,0 -4.2889,-0.3873 -4.4932,-0.4372v-3.7226c0.3702,0.0999 2.119,0.6121 3.9316,0.6121c2.0678,0 3.0252,-0.5997 3.0252,-1.5116c0,-0.8244 -0.817,-1.2991 -1.8509,-1.6114c-0.2553,-0.0875 -0.6382,-0.1999 -0.8935,-0.2874c-2.3232,-0.712 -4.2507,-2.0487 -4.2507,-4.722c0,-3.023 2.3104,-5.0467 6.1526,-5.0467c2.0168,0 3.9315,0.4747 4.0592,0.5121zM77.7294,36.3955c-2.4764,0 -4.3017,1.8988 -4.3017,4.2473c0,2.3485 1.8253,4.2473 4.3017,4.2473c2.4763,0 4.3144,-1.8988 4.3144,-4.2473c0,-2.3485 -1.8381,-4.2473 -4.3144,-4.2473zM86.4476,40.6428c0,4.6221 -3.6379,8.3572 -8.7182,8.3572c-5.0804,0 -8.7183,-3.7351 -8.7183,-8.3572c0,-4.622 3.6379,-8.3696 8.7183,-8.3696c5.0803,0 8.7182,3.7476 8.7182,8.3696zM21.1434,37.195c-0.1659,-0.0874 -1.5062,-0.8619 -3.4975,-0.8619c-2.7061,0 -4.5697,1.8363 -4.5697,4.3097c0,2.3985 1.787,4.3098 4.5697,4.3098c1.953,0 3.3188,-0.762 3.4975,-0.862v4.3348c-0.5233,0.1499 -1.9402,0.5746 -3.8038,0.5746c-4.6847,0 -8.78597,-3.1605 -8.78597,-8.3572c0,-4.8344 3.71837,-8.3696 8.78597,-8.3696c1.9657,0 3.4081,0.4622 3.8038,0.5871zM64.62,37.195c-0.1659,-0.0874 -1.5062,-0.8619 -3.4975,-0.8619c-2.6934,0 -4.557,1.8363 -4.557,4.3097c0,2.3985 1.787,4.3098 4.557,4.3098c1.953,0 3.3188,-0.762 3.4975,-0.862v4.3348c-0.5106,0.1499 -1.9402,0.5746 -3.7911,0.5746c-4.6846,0 -8.7949,-3.1605 -8.7949,-8.3572c0,-4.8344 3.7145,-8.3696 8.7949,-8.3696c1.953,0 3.4082,0.4622 3.7911,0.5871zM31.0361,48.7127h-4.1613v-16.1522h4.1613z" fill="#b9b9b9" fill-opacity="1"></path></g></g></svg>