<?xml version="1.0" encoding="UTF-8"?>
<svg id="SVGDoc" width="80" height="38" xmlns="http://www.w3.org/2000/svg" version="1.1" xmlns:xlink="http://www.w3.org/1999/xlink" xmlns:avocode="https://avocode.com/" viewBox="0 0 80 38"><defs></defs><desc>Generated with Avocode.</desc><g><g><title>Shape</title><path d="M32.9297,0.0195c-3.3178,0.2314 -6.1259,3.0175 -6.1259,6.9422l0,18.6792c0,0.6757 -0.5005,1.2588 -1.2326,1.2588h-5.8386c-12.64106,0.0185 -11.51968,-16.1244 -0.76,-16.1429h6.4688v-4.693h-6.6912c-4.2909,0 -7.4697,1.6014 -9.61052,3.9802c-2.15009,2.3881 -3.22513,5.5908 -3.22513,8.7935c-0.00927,3.2027 1.05651,6.3868 3.25293,8.7749c2.19642,2.37891 5.51422,3.98025 10.06462,3.98025h11.0192c0.7229,0 1.3253,-0.62943 1.3253,-1.35142v-22.77973c-0.0093,-1.1755 0.658,-2.0826 1.5199,-2.3511c0.8619,-0.2684 1.8721,0.0741 2.4652,0.9256l0.0278,0.0278c3.1324,5.1187 15.5696,25.04753 15.5881,25.08455c0.3429,0.48133 0.7507,0.57389 1.0473,0.47207c0.2965,-0.10182 0.5931,-0.41653 0.5931,-1.21257v-22.94635c-0.0093,-1.1755 0.658,-2.0826 1.5199,-2.3511c0.8619,-0.2684 1.8535,0.0741 2.4466,0.9256v0.0278h0.0464c3.1324,5.1187 15.5696,25.04753 15.5881,25.08455c0.3337,0.48133 0.7322,0.57389 1.0473,0.47207c0.3151,-0.10182 0.6209,-0.39802 0.6209,-1.1848v-30.29582h-4.7265v17.6795c0,0 -2.8174,-4.804 -7.6365,-13.0884c-4.7265,-8.1085 -13.6512,-4.7485 -13.6512,2.2308v10.8576c0,0 -2.771,-4.804 -7.5995,-13.0884c-2.0759,-3.5451 -4.9582,-4.9058 -7.5438,-4.7114zM19.575,0.1398c-26.28295,0 -26.03273,37.4139 0.3522,37.43241h10.3241c4.4392,0 7.2658,-2.61953 7.2658,-7.46982v-9.48769c0,0 5.7923,9.571 8.0721,13.31979c3.8646,6.37758 13.1971,5.11873 13.1693,-2.84168v-10.47811c0,0 5.7738,9.571 8.0443,13.31979c3.8646,6.37758 13.2249,5.11873 13.1971,-2.84168v-30.96231h-4.7264v30.29586c0.0092,1.16629 -0.6024,2.02713 -1.4458,2.29556c-0.8434,0.27769 -1.8072,-0.07405 -2.4003,-0.89786h-0.0185v-0.04628c0,0 -12.4465,-19.87328 -15.616,-25.05678c-0.0093,-0.0092 -0.0185,0.0093 -0.0278,0c-0.0093,0 0.0093,-0.0278 0,-0.0278c-0.3244,-0.435 -0.7507,-0.5276 -1.0936,-0.4257c-0.3521,0.111 -0.6951,0.4165 -0.6858,1.1848l0,22.94629c0.0093,1.15704 -0.5931,2.06415 -1.4272,2.3511c-0.8341,0.27769 -1.7887,-0.09257 -2.3725,-0.92563v-0.02777h-0.0278c0,0 -12.4557,-19.91029 -15.616,-25.08449c-0.3336,-0.4721 -0.7599,-0.5832 -1.1121,-0.4721c-0.3521,0.1111 -0.695,0.4165 -0.6858,1.1848l0,22.80748c0,1.37919 -1.1399,2.53622 -2.5208,2.53622h-11.0099c-4.8377,0 -8.4984,-1.74018 -10.91727,-4.35971c-2.41885,-2.61949 -3.61438,-6.09989 -3.61438,-9.58029c0.00927,-3.4711 1.19553,-6.9792 3.55877,-9.5987c2.36328,-2.6196 5.90348,-4.3597 10.49098,-4.3597h6.6912v-4.7393z" fill="#b9b9b9" fill-opacity="1"></path></g></g></svg>