<?xml version="1.0" encoding="UTF-8"?>
<svg id="SVGDoc" width="99" height="40" xmlns="http://www.w3.org/2000/svg" version="1.1" xmlns:xlink="http://www.w3.org/1999/xlink" xmlns:avocode="https://avocode.com/" viewBox="0 0 99 40"><defs></defs><desc>Generated with Avocode.</desc><g><g><title>Combined Shape</title><path d="M24.8805,0h5.0264v12.5402c0,0 2.1458,-3.74449 9.0281,-3.74449c7.3655,0 11.7153,5.24619 11.7153,11.76009c0,0.7793 -0.0587,1.5325 -0.1726,2.2558c1.1989,-3.352 5.3044,-5.0057 12.0618,-5.0057h6.1283v-1.0921c0,-3.0619 -2.6678,-4.6611 -6.1283,-4.6611c-5.3163,0 -5.587,3.3934 -5.587,3.3934h-5.2196c0,-0.9361 0.6766,-6.7284 11.174,-6.7284c3.5872,0 7.5236,0.76306 9.5083,3.758l-1.5048,-2.84137h5.8769l8.4482,17.06487l8.4288,-17.06487h5.3357l-15.3304,30.36567h-5.587l4.4271,-8.4642l-9.4582,-17.8586c0.4267,1.032 0.666,2.2663 0.662,3.7387v10.9605c0,1.2677 0.174,3.257 0.174,3.257h-4.6397c0,0 -0.116,-1.5993 -0.116,-3.218c0,0 -2.3585,4.0761 -9.6854,4.0761c-5.355,0 -9.3374,-2.6134 -9.3374,-7.4111c0,-0.2548 0.0117,-0.503 0.0351,-0.7443c-1.3953,4.9205 -5.5702,8.1164 -11.2091,8.1164c-6.631,0 -9.0668,-3.8421 -9.0668,-3.8421c0,1.4432 -0.174,3.0425 -0.174,3.0425h-4.9297c0,0 0.116,-2.2234 0.116,-3.8031v-5.9678h-19.77681c0,4.2126 3.17048,7.1965 7.55891,7.1965c5.3936,0 6.4956,-3.8225 6.4956,-3.8225h5.1617c0,0 -0.6767,7.099 -11.348,7.099c-9.0668,0 -12.9719,-4.5052 -12.9719,-11.6431c0,-9.0103 5.81898,-11.99419 12.7979,-11.99419c9.4727,0 12.0826,6.39689 12.0826,10.53149zM19.6608,18.5471c0,-3.8811 -2.8612,-6.4554 -7.0369,-6.4554c-3.67311,0 -7.40422,2.3403 -7.38488,6.4554zM29.9262,20.5753c0,4.4271 2.7258,8.4057 7.7908,8.4057c4.2338,0 7.7136,-3.335 7.7136,-8.4447c0,-4.7586 -3.0158,-8.3081 -7.7522,-8.3081c-5.3164,0 -7.7522,4.2516 -7.7522,8.3471zM68.6872,21.0824c-7.9455,0 -13.3392,0.039 -13.3392,3.998c0,2.1843 1.6045,4.0761 5.355,4.0761c6.8242,0 7.9842,-4.7196 7.9842,-6.6114z" fill="#b9b9b9" fill-opacity="1"></path></g></g></svg>