<?xml version="1.0" encoding="UTF-8"?>
<svg id="SVGDoc" width="110" height="35" xmlns="http://www.w3.org/2000/svg" version="1.1" xmlns:xlink="http://www.w3.org/1999/xlink" xmlns:avocode="https://avocode.com/" viewBox="0 0 110 35"><defs></defs><desc>Generated with Avocode.</desc><g><g><title>Shape</title><path d="M0,13.5762c0,-7.48624 6.44977,-13.5762 14.124,-13.5762c4.2438,0 7.2632,1.62528 9.5396,3.74172l-2.683,2.6159c-1.6268,-1.49007 -3.8372,-2.65177 -6.8566,-2.65177c-5.60098,0 -9.98146,4.40673 -9.98146,9.87035c0,5.4635 4.38048,9.8675 9.98146,9.8675c3.6339,0 5.7026,-1.4266 7.0289,-2.7152c1.0819,-1.0596 1.7977,-2.5828 2.0693,-4.6689h-9.0982v-3.7086h12.7988c0.1358,0.665 0.2037,1.4569 0.2037,2.3206c0,2.7815 -0.7808,6.2197 -3.296,8.6755c-2.4433,2.4835 -5.5645,3.8052 -9.7065,3.8052c-7.67423,0 -14.124,-6.0927 -14.124,-13.5761zM28.4817,18.4078c0,-5.0634 4.0402,-8.73893 9.0026,-8.73893c4.954,0 8.9941,3.67553 8.9941,8.73893c0,5.0359 -4.0401,8.7445 -8.9941,8.7445c-4.9624,0 -9.0026,-3.7086 -9.0026,-8.7445zM42.5401,18.4078c0,-3.1429 -2.3426,-5.2925 -5.0558,-5.2925c-2.7189,0 -5.0643,2.1496 -5.0643,5.2925c0,3.1154 2.3454,5.3008 5.0643,5.3008c2.7132,0 5.0558,-2.1854 5.0558,-5.3008zM48.1052,18.4078c0,-5.0634 4.0401,-8.73893 8.9997,-8.73893c4.9568,0 8.997,3.67553 8.997,8.73893c0,5.0359 -4.0402,8.7445 -8.997,8.7445c-4.9596,0 -8.9997,-3.7086 -8.9997,-8.7445zM62.1636,18.4078c0,-3.1429 -2.3426,-5.2925 -5.0587,-5.2925c-2.716,0 -5.0614,2.1496 -5.0614,5.2925c0,3.1154 2.3454,5.3008 5.0614,5.3008c2.7161,0 5.0587,-2.1854 5.0587,-5.3008zM68.4445,29.8344l3.4261,-1.3935c0.614,1.4294 2.1106,3.1154 4.5183,3.1154c2.9537,0 4.787,-1.7853 4.787,-5.1325v-1.2582h-0.1358c-0.8855,1.0596 -2.583,1.9867 -4.7163,1.9867c-4.4843,0 -8.5895,-3.8052 -8.5895,-8.7086c0,-4.9338 4.1052,-8.77483 8.5895,-8.77483c2.1333,0 3.8308,0.92713 4.7163,1.95363h0.1358v-1.4238h3.7374v15.6953c0,6.4598 -3.91,9.106 -8.5244,9.106c-4.3457,0 -6.9571,-2.8449 -7.9444,-5.1656zM81.4475,18.4437c0,-3.0795 -2.1049,-5.3284 -4.7898,-5.3284c-2.7133,0 -4.9908,2.2489 -4.9908,5.3284c0,3.0491 2.2775,5.2649 4.9908,5.2649c2.6849,0 4.7898,-2.2158 4.7898,-5.2649zM91.5648,26.6225h-3.9383v-25.69535h3.9383zM93.466,18.4078c0,-5.1931 3.8365,-8.73893 8.454,-8.73893c4.648,0 6.926,3.60923 7.673,5.56293l0.407,0.9906l-11.9846,4.8372c0.9139,1.755 2.3426,2.649 4.3456,2.649c2.003,0 3.395,-0.963 4.411,-2.4145l3.058,1.984c-0.984,1.4266 -3.364,3.8742 -7.469,3.8742c-5.0925,0 -8.895,-3.841 -8.895,-8.7445zM105.386,14.9007c-0.445,-1.0928 -1.769,-1.8543 -3.33,-1.8543c-2.004,0 -4.7875,1.7246 -4.6856,5.0993z" fill="#b9b9b9" fill-opacity="1"></path></g></g></svg>