<?xml version="1.0" encoding="UTF-8"?>
<svg id="SVGDoc" width="159" height="22" xmlns="http://www.w3.org/2000/svg" version="1.1" xmlns:xlink="http://www.w3.org/1999/xlink" xmlns:avocode="https://avocode.com/" viewBox="0 0 159 22"><defs></defs><desc>Generated with Avocode.</desc><g><g><title>Shape</title><path d="M62.0497,19.2579c2.1404,0 3.868,-1.7087 3.868,-3.8337c0,-2.1012 -1.7276,-3.8105 -3.868,-3.8105h-12.2807c-0.8255,0 -1.5213,0.6946 -1.5213,1.5114v6.1181l13.802,0.0095zM48.2477,9.58777c0.4031,-0.1714 0.8542,-0.2732 1.3101,-0.30634h12.5543c1.9436,0 3.5177,-1.55298 3.5177,-3.46201c0,-1.91992 -1.5741,-3.47527 -3.5177,-3.47527l-13.8644,-0.01562zM68.2693,15.419c0,3.3995 -2.7835,6.1513 -6.2196,6.1513h-16.3009v-21.56983l16.3585,0.00805c3.2442,0 5.8788,2.60409 5.8788,5.80001c0,1.89104 -0.9262,3.5586 -2.3323,4.61637c1.5837,1.1164 2.6155,2.9345 2.6155,4.9941zM138.268,10.8027l12.19,0.0095c2.375,0 4.3,-1.90292 4.3,-4.24943c0,-2.34889 -1.925,-4.23945 -4.3,-4.23945l-13.702,0.00473l0.048,8.76775c0.461,-0.1852 0.96,-0.2912 1.488,-0.2912zM157.469,19.2513l1.531,1.9209c-1.68,1.3025 -4.094,1.035 -5.471,-0.5701l-5.98,-7.4936h-9.209c-0.811,0 -1.464,0.6524 -1.512,1.4355l-0.048,7.0278h-2.5v-21.5718h16.187c3.672,0 6.647,2.93173 6.647,6.55756c0,3.54254 -2.855,6.42874 -6.431,6.53764l4.785,5.9913c0.523,0.5464 1.377,0.6425 1.977,0.1657zM93.3107,19.1026h18.4813v2.4677h-21.0008v-21.56983h20.2668v2.4682h-17.7473v7.09116c0.4646,-0.19612 0.9632,-0.30221 1.4685,-0.31249h10.9078v2.48096h-10.8694c-0.811,0.0152 -1.5069,0.6795 -1.5069,1.4877zM20.8163,0.0535h2.4955v13.4229c0,4.9809 -3.9438,8.5215 -10.912,8.5215c-6.9788,0 -10.93801,-3.5406 -10.93801,-8.5215v-9.69101c-0.07295,-0.74429 -0.68818,-1.33708 -1.46179,-1.33708v-2.43837c2.13365,0 3.87379,1.68177 3.95393,3.77545v8.83301c0,4.2996 2.11398,6.8407 8.44627,6.8407c6.3142,0 8.4161,-2.5415 8.4161,-6.8407z" fill="#b9b9b9" fill-opacity="1"></path></g></g></svg>